<?xml version="1.0" standalone="no"?><!DOCTYPE svg PUBLIC "-//W3C//DTD SVG 1.1//EN" "http://www.w3.org/Graphics/SVG/1.1/DTD/svg11.dtd"><svg class="icon" width="200px" height="189.63px" viewBox="0 0 1080 1024" version="1.1" xmlns="http://www.w3.org/2000/svg"><path fill="#000000" d="M188.302222 827.050667c0-9.159111 7.395556-16.611556 16.554667-16.611556h52.736c9.159111 0 16.611556 7.395556 16.611555 16.611556v52.736c0 9.102222-7.395556 16.554667-16.611555 16.554666h-52.736a16.611556 16.611556 0 0 1-16.611556-16.554666v-52.736z m0-132.778667c0-9.159111 7.395556-16.611556 16.554667-16.611556h52.736c9.159111 0 16.611556 7.395556 16.611555 16.611556v52.736c0 9.102222-7.395556 16.554667-16.611555 16.554667h-52.736a16.611556 16.611556 0 0 1-16.611556-16.554667v-52.736z m0-132.778667c0-9.159111 7.395556-16.611556 16.554667-16.611555h52.736c9.159111 0 16.611556 7.395556 16.611555 16.611555v52.736c0 9.102222-7.395556 16.554667-16.611555 16.554667h-52.736a16.611556 16.611556 0 0 1-16.611556-16.554667V561.493333z m0-132.778666c0-9.159111 7.395556-16.611556 16.554667-16.611556h52.736c9.159111 0 16.611556 7.395556 16.611555 16.611556v52.736c0 9.102222-7.395556 16.554667-16.611555 16.554666h-52.736a16.611556 16.611556 0 0 1-16.611556-16.554666v-52.736z m0-132.778667c0-9.216 7.395556-16.611556 16.554667-16.611556h52.736c9.159111 0 16.611556 7.395556 16.611555 16.611556v52.736c0 9.102222-7.395556 16.554667-16.611555 16.554667h-52.736a16.611556 16.611556 0 0 1-16.611556-16.554667v-52.736z m159.857778 531.114667c0-9.159111 7.395556-16.611556 16.554667-16.611556h52.736c9.159111 0 16.611556 7.395556 16.611555 16.611556v52.736c0 9.102222-7.395556 16.554667-16.611555 16.554666h-52.736a16.611556 16.611556 0 0 1-16.611556-16.554666v-52.736z m0-132.778667c0-9.159111 7.395556-16.611556 16.554667-16.611556h52.736c9.159111 0 16.611556 7.395556 16.611555 16.611556v52.736c0 9.102222-7.395556 16.554667-16.611555 16.554667h-52.736a16.611556 16.611556 0 0 1-16.611556-16.554667v-52.736z m0-132.778667c0-9.159111 7.395556-16.611556 16.554667-16.611555h52.736c9.159111 0 16.611556 7.395556 16.611555 16.611555v52.736c0 9.102222-7.395556 16.554667-16.611555 16.554667h-52.736a16.611556 16.611556 0 0 1-16.611556-16.554667V561.493333z m0-132.778666c0-9.159111 7.395556-16.611556 16.554667-16.611556h52.736c9.159111 0 16.611556 7.395556 16.611555 16.611556v52.736c0 9.102222-7.395556 16.554667-16.611555 16.554666h-52.736a16.611556 16.611556 0 0 1-16.611556-16.554666v-52.736z m0-132.778667c0-9.216 7.395556-16.611556 16.554667-16.611556h52.736c9.159111 0 16.611556 7.395556 16.611555 16.611556v52.736c0 9.102222-7.395556 16.554667-16.611555 16.554667h-52.736a16.611556 16.611556 0 0 1-16.611556-16.554667v-52.736z m0-132.778667c0-9.216 7.395556-16.611556 16.554667-16.611555h52.736c9.159111 0 16.611556 7.395556 16.611555 16.611555v52.736c0 9.102222-7.395556 16.554667-16.611555 16.554667h-52.736a16.611556 16.611556 0 0 1-16.611556-16.554667v-52.736z m391.68 663.893334c0-9.159111 7.452444-16.611556 16.611556-16.611556h52.736c9.159111 0 16.611556 7.395556 16.611555 16.611556v52.736c0 9.102222-7.395556 16.554667-16.611555 16.554666h-52.736a16.611556 16.611556 0 0 1-16.611556-16.554666v-52.736z m0-132.778667c0-9.159111 7.452444-16.611556 16.611556-16.611556h52.736c9.159111 0 16.611556 7.395556 16.611555 16.611556v52.736c0 9.102222-7.395556 16.554667-16.611555 16.554667h-52.736a16.611556 16.611556 0 0 1-16.611556-16.554667v-52.736z m0-132.778667c0-9.159111 7.452444-16.611556 16.611556-16.611555h52.736c9.159111 0 16.611556 7.395556 16.611555 16.611555v52.736c0 9.102222-7.395556 16.554667-16.611555 16.554667h-52.736a16.611556 16.611556 0 0 1-16.611556-16.554667V561.493333z m0-132.778666c0-9.159111 7.452444-16.611556 16.611556-16.611556h52.736c9.159111 0 16.611556 7.395556 16.611555 16.611556v52.736c0 9.102222-7.395556 16.554667-16.611555 16.554666h-52.736a16.611556 16.611556 0 0 1-16.611556-16.554666v-52.736z m0-132.778667c0-9.216 7.452444-16.611556 16.611556-16.611556h52.736c9.159111 0 16.611556 7.395556 16.611555 16.611556v52.736c0 9.102222-7.395556 16.554667-16.611555 16.554667h-52.736a16.611556 16.611556 0 0 1-16.611556-16.554667v-52.736z m218.339556 640.853333v-620.088889a46.819556 46.819556 0 0 0-23.210667-40.391111l-254.065778-148.138666a46.819556 46.819556 0 0 0-70.428444 40.448v768.170666h-53.304889V46.876444A46.819556 46.819556 0 0 0 491.861333 3.811556L94.833778 174.08a46.819556 46.819556 0 0 0-28.387556 43.064889v719.644444H16.611556a16.611556 16.611556 0 0 0-16.611556 16.554667v54.044444c0 9.102222 7.395556 16.554667 16.611556 16.554667h991.630222c9.159111 0 16.611556-7.395556 16.611555-16.611555v-53.987556a16.611556 16.611556 0 0 0-16.611555-16.611556h-50.062222z" /></svg>