<?xml version="1.0" standalone="no"?><!DOCTYPE svg PUBLIC "-//W3C//DTD SVG 1.1//EN" "http://www.w3.org/Graphics/SVG/1.1/DTD/svg11.dtd"><svg class="icon" width="200px" height="200.00px" viewBox="0 0 1024 1024" version="1.1" xmlns="http://www.w3.org/2000/svg"><path fill="#000000" d="M903.54176 270.9504c-13.8496-13.84448-30.67904-20.7872-50.54976-20.7872v0.02048h-71.31136v36.0448h-36.0448v-36.0448H211.968c-19.8656 0-36.70016 6.92224-50.54464 20.76672-13.84448 13.84448-20.76672 30.67904-20.76672 50.54464v427.08992c0 19.84512 6.92224 36.70016 20.76672 50.54464 13.84448 13.84448 30.67904 20.76672 50.54464 20.76672h533.66784v-35.26656h36.0448v35.26656H852.992c19.87072 0 36.70016-6.92224 50.54976-20.76672 13.83936-13.84448 20.7616-30.67904 20.7616-50.54464V321.49504c-0.00512-19.84512-6.92224-36.70016-20.7616-50.54464z m-121.86112 442.368h-36.0448v-35.27168h36.0448v35.27168z m0-105.79968h-36.0448v-36.0448h36.0448v36.0448z m0-106.57792h-36.0448V464.896h36.0448v36.0448z m0-107.35616h-36.0448v-35.26656h36.0448v35.26656zM269.21984 575.01696v-53.89312h84.44416v-27.81696h57.42592v27.81696h77.69088v53.89312H411.08992v39.99232l18.57536-24.34048c19.12832 11.5968 42.77248 27.81696 70.93248 48.68096-2.26816-1.14176-0.57856 0.59904 5.06368 5.21728l-35.46624 45.19936c-6.75328-5.7856-16.33792-13.90592-28.71296-24.34048-13.51168-10.42944-23.64416-17.95584-30.40256-22.59968v93.88544H353.664v-95.62624c-14.64832 22.03136-38.84544 46.94528-72.62208 74.76224-2.27328-4.64384-5.0688-11.02848-8.44288-19.1232-7.88992-15.04256-13.51168-27.2128-16.89088-36.51072 33.77664-22.00064 62.4896-50.41664 86.13376-85.19168H269.21984z m3.3792-172.11904c-3.3792-19.69664-6.7584-37.07904-10.13248-52.15744 64.1792-1.14176 137.35936-4.61824 219.56096-10.42944l10.13248 52.15744c-41.67168 2.33984-97.95584 5.21728-168.89344 8.69376-21.4016 1.16736-38.29248 1.73568-50.66752 1.73568z m16.88576 97.36192c-5.64736-18.52416-12.9536-43.46368-21.95456-74.76224l48.97792-12.17024c6.75328 16.24576 14.6176 40.58624 23.64416 73.02144l-50.66752 13.91104z m70.9376-15.64672a731.904 731.904 0 0 0-16.89088-71.28064l50.66752-8.69376c1.10592 3.47648 2.24256 8.69376 3.3792 15.64672 6.7584 24.34048 11.24352 42.89024 13.51168 55.63392l-50.66752 8.69376z m163.82464-10.43456l-33.77664-50.41664a709.44768 709.44768 0 0 1-28.71296 76.49792l-45.59872-17.38752c13.51168-33.60256 22.50752-59.67872 27.02336-78.2336l48.97792 15.64672-1.6896 3.47648c43.90912-20.864 85.5552-52.15744 124.9792-93.88032l40.52992 41.72288a881.59232 881.59232 0 0 1-131.73248 102.57408z m-11.82208 265.99936l-35.46624-50.42176c57.4208-27.81696 107.51488-67.2 150.31296-118.2208l40.53504 45.19936c-42.8032 48.68608-94.58176 89.81504-155.38176 123.4432z m15.20128-140.82048a3564.19072 3564.19072 0 0 1-10.13248-15.64672c-2.26816-5.79072-10.13248-17.96096-23.64416-36.51072 48.39936-25.48224 90.624-57.37472 126.6688-95.62112l40.53504 43.46368c-43.91936 42.89024-88.40704 77.66016-133.4272 104.31488z" /></svg>