<?xml version="1.0" standalone="no"?><!DOCTYPE svg PUBLIC "-//W3C//DTD SVG 1.1//EN" "http://www.w3.org/Graphics/SVG/1.1/DTD/svg11.dtd"><svg class="icon" width="200px" height="200.00px" viewBox="0 0 1024 1024" version="1.1" xmlns="http://www.w3.org/2000/svg"><path fill="#000000" d="M655.36 380.928V182.272L614.4 143.36l-106.496-102.4-40.96-40.96H450.56c-45.056 0-81.92 36.864-81.92 81.92v299.008c-24.576 14.336-40.96 40.96-40.96 69.632v491.52c0 45.056 36.864 81.92 81.92 81.92h204.8c45.056 0 81.92-36.864 81.92-81.92V450.56c0-30.72-16.384-55.296-40.96-69.632zM409.6 81.92c0-22.528 18.432-40.96 40.96-40.96l163.84 161.792V368.64H409.6V81.92z m245.76 860.16c0 22.528-18.432 40.96-40.96 40.96H409.6c-22.528 0-40.96-18.432-40.96-40.96V532.48h286.72v409.6z m0-430.08H368.64v-61.44c0-22.528 18.432-40.96 40.96-40.96h204.8c22.528 0 40.96 18.432 40.96 40.96v61.44z" /></svg>