<?xml version="1.0" standalone="no"?><!DOCTYPE svg PUBLIC "-//W3C//DTD SVG 1.1//EN" "http://www.w3.org/Graphics/SVG/1.1/DTD/svg11.dtd"><svg class="icon" width="200px" height="200.00px" viewBox="0 0 1024 1024" version="1.1" xmlns="http://www.w3.org/2000/svg"><path fill="#000000" d="M483.108206 822.857143v35.328a50.102857 50.102857 0 0 1-49.956572 49.883428H338.431634a28.891429 28.891429 0 0 0-29.037714 28.964572c0 16.091429 12.8 29.037714 29.037714 29.037714h104.448a100.205714 100.205714 0 0 0 99.693715-99.620571v-43.446857a28.891429 28.891429 0 0 0-29.037715-29.037715 29.037714 29.037714 0 0 0-30.427428 28.891429zM606.86592 478.793143V465.92a24.722286 24.722286 0 0 0-24.137143-24.137143H487.862491l69.193143-61.074286c9.728-9.728 11.190857-24.137143 1.609143-33.718857a22.674286 22.674286 0 0 0-32.109714-1.609143L425.398491 435.419429c-4.827429 4.827429-8.045714 9.728-8.045714 16.018285v12.8c0 12.8 11.117714 24.137143 24.137143 24.137143H536.136777l-69.193143 61.074286c-9.728 9.728-11.190857 24.137143-1.609143 33.718857a22.674286 22.674286 0 0 0 32.109715 1.609143l101.229714-90.112a19.309714 19.309714 0 0 0 8.045714-15.872zM579.510491 309.979429a29.037714 29.037714 0 1 0 58.002286 0 29.037714 29.037714 0 0 0-58.002286 0zM396.214491 620.251429a29.037714 29.037714 0 1 0 58.002286 0 29.037714 29.037714 0 0 0-58.002286 0zM674.230491 1.316571a28.891429 28.891429 0 0 0-28.964571 28.964572v104.594286H378.587063V30.208a28.891429 28.891429 0 0 0-29.037714-28.964571 28.891429 28.891429 0 0 0-28.964572 28.964571v138.24c0 12.8 11.190857 24.137143 24.137143 24.137143h334.409143c12.8 0 24.137143-11.190857 24.137143-24.137143V30.281143a28.745143 28.745143 0 0 0-29.037715-28.964572z"  /><path fill="#000000" d="M753.151634 134.802286h-3.218285v57.856h3.218285c56.246857 0 102.912 46.665143 102.912 102.912v241.078857c-3.291429 9.728-83.602286 215.332571-371.346285 215.332571-143.067429 0-231.570286-62.683429-271.725715-115.638857C169.544777 578.486857 166.326491 520.630857 166.326491 520.630857V295.497143c0-56.246857 46.665143-102.912 102.912-102.912h3.218286v-57.782857h-1.609143C182.344777 134.802286 110.079634 206.994286 110.079634 295.497143v223.451428c0 24.137143 6.509714 107.739429 83.602286 183.222858 70.802286 69.193143 159.158857 106.130286 294.253714 106.130285h9.728s33.645714-1.609143 51.346286-1.609143c151.186286-11.190857 221.842286-67.584 271.725714-114.102857 69.193143-62.683429 93.184-130.194286 93.184-173.641143V295.497143a160.182857 160.182857 0 0 0-160.768-160.768z"  /></svg>