<?xml version="1.0" standalone="no"?><!DOCTYPE svg PUBLIC "-//W3C//DTD SVG 1.1//EN" "http://www.w3.org/Graphics/SVG/1.1/DTD/svg11.dtd"><svg class="icon" width="200px" height="200.00px" viewBox="0 0 1024 1024" version="1.1" xmlns="http://www.w3.org/2000/svg"><path fill="#000000" d="M746.917 540.124c-18.167 45.509-62.597 77.751-114.492 77.751s-96.325-32.243-114.493-77.751c-18.348 45.509-63.317 77.751-115.751 77.751-51.895 0-96.325-32.243-114.493-77.751-18.348 45.509-63.317 77.751-115.751 77.751-12.322 0-24.283-1.889-35.526-5.261v257.675c0 23.97 26.307 53.244 50.006 53.244h661.772c23.654 0 50.006-29.275 50.006-53.244V612.705c-11.287 3.327-23.205 5.171-35.526 5.171-52.435 0-97.405-32.243-115.752-77.752z m149.299-330.121H135.78L56.815 418.976c0 62.553 51.31 114.493 114.493 114.493 63.137 0 115.75-50.59 115.75-114.493 0 62.553 51.311 114.493 114.493 114.493 63.137 0 115.752-50.59 115.752-114.493 0 62.553 51.31 114.493 114.492 114.493 63.137 0 114.403-50.59 114.403-114.493 0 62.553 51.356 114.493 115.796 114.493 63.182 0 115.797-50.59 115.797-114.493l-81.575-208.973z m-707.82-35.481H846.21c22.395 0 39.483-17.314 39.483-39.933s-17.088-39.933-39.483-39.933H188.396c-22.395 0-39.483 17.313-39.483 39.932s17.088 39.934 39.483 39.934z" /></svg>