<?xml version="1.0" standalone="no"?><!DOCTYPE svg PUBLIC "-//W3C//DTD SVG 1.1//EN" "http://www.w3.org/Graphics/SVG/1.1/DTD/svg11.dtd"><svg class="icon" width="200px" height="160.88px" viewBox="0 0 1273 1024" version="1.1" xmlns="http://www.w3.org/2000/svg"><path fill="#000000" d="M1190.054054 193.72973h-55.351351v138.378378h-110.702703V193.72973h-55.351351v138.378378h-83.027027v281.710703a193.72973 193.72973 0 0 0 166.054054 189.24627V1024h55.351351v-219.883243a187.834811 187.834811 0 0 0 166.054054-190.297946V332.108108h-83.027027z m27.675676 420.089081a138.378378 138.378378 0 0 1-276.756757 0V387.459459h276.756757z"  /><path fill="#000000" d="M1081.676108 524.066595a83.635892 83.635892 0 1 0 83.663568 83.663567 83.718919 83.718919 0 0 0-83.663568-83.663567z m0 111.948108a28.284541 28.284541 0 1 1 28.312216-28.284541 28.339892 28.339892 0 0 1-28.312216 28.284541z"  /><path fill="#000000" d="M940.972973 442.810811h276.756757v55.351351H940.972973z"  /><path fill="#000000" d="M940.972973 968.648649H55.351351V55.351351h885.621622v83.027027h55.351351V0H0v1024h996.324324v-193.72973h-55.351351z"  /><path fill="#000000" d="M133.728865 513.079351A346.665514 346.665514 0 1 0 480.394378 166.413838 347.052973 347.052973 0 0 0 133.728865 513.079351z m637.979676 0A291.424865 291.424865 0 0 1 498.162162 803.480216V719.567568h-55.351351v82.113729a291.00973 291.00973 0 0 1 0-577.203892V304.432432h55.351351V222.678486a291.397189 291.397189 0 0 1 273.546379 290.400865z"  /><path fill="#000000" d="M351.896216 414.221838A90.94227 90.94227 0 1 0 442.810811 505.164108a91.052973 91.052973 0 0 0-90.914595-90.94227z m0 126.533189A35.590919 35.590919 0 1 1 387.459459 505.164108a35.64627 35.64627 0 0 1-35.563243 35.590919z"  /><path fill="#000000" d="M604.962595 596.106378a90.94227 90.94227 0 1 0-90.942271-90.94227 91.052973 91.052973 0 0 0 90.942271 90.94227z m0-126.533189a35.590919 35.590919 0 1 1-35.590919 35.590919 35.64627 35.64627 0 0 1 35.590919-35.590919z"  /></svg>