<?xml version="1.0" standalone="no"?><!DOCTYPE svg PUBLIC "-//W3C//DTD SVG 1.1//EN" "http://www.w3.org/Graphics/SVG/1.1/DTD/svg11.dtd"><svg class="icon" width="200px" height="200.00px" viewBox="0 0 1024 1024" version="1.1" xmlns="http://www.w3.org/2000/svg"><path fill="#000000" d="M512 941.01283389c-227.91331348 0-415.6051518-187.69340941-415.6051518-415.60672289V512c0-13.406111 13.406111-26.81379309 26.81222201-26.81379309h777.58585958c13.406111 0 26.81222197 10.72583146 26.81222201 26.81379309v13.406111c0 227.91331348-187.6918383 415.60672289-415.6051518 415.60672289z m-361.97913671-402.1990408c8.04398081 193.05553958 166.2417465 348.57145463 361.97913671 348.57145462s353.9351559-155.51591505 361.97913671-348.57145462H150.02086329z"  /><path fill="#000000" d="M678.2417465 707.73739023c-107.25203015 0-265.45136692-2.68185065-501.40709014-8.04398082-16.08796163 0-26.81379309-13.40768207-26.81379307-26.81379308 0-16.08796163 13.406111-26.81379309 26.81379307-26.8137931 238.63757385 5.36370126 624.74865301 13.40768207 681.05651871 5.36370128 10.72583146-8.04398081 24.13194244-5.36370126 32.17592329 2.68027954 8.04398081 8.04398081 10.72583146 21.45166291 5.36213017 29.49564373-2.68027954 13.406111-8.04398081 24.13194244-217.18748203 24.13194245zM525.406111 458.37398492c-5.36213017 0-8.04398081 0-13.406111-2.68185063-13.406111-8.04398081-16.08796163-24.13194244-10.72583146-37.53805346C680.92359714 101.75697839 688.96757794 93.71299757 694.32970814 91.03114694c10.72583146-10.72426036 26.81379309-10.72426036 37.53962453 0 10.72426036 10.72583146 10.72426036 26.81379309 2.68027953 37.53962453-13.406111 16.08796163-120.65971222 203.77979996-185.01155875 319.07738199-5.36213017 5.36213017-16.08796163 10.72583146-24.13194245 10.72583146zM605.84591917 458.37398492c-8.04398081 0-16.08796163-2.68185065-18.7682412-8.0439808-10.72583146-10.72583146-8.04398081-26.81379309 2.68027954-37.53962455l241.31942448-214.5056314c10.72583146-10.72583146 26.81379309-8.04398081 37.53962456 2.68185064 10.72426036 10.72426036 8.04398081 26.81222197-2.68185065 37.53805347l-241.31942448 214.50563138c-5.36213017 2.68185065-13.406111 5.36370126-18.76981225 5.36370126z"  /></svg>