<?xml version="1.0" standalone="no"?><!DOCTYPE svg PUBLIC "-//W3C//DTD SVG 1.1//EN" "http://www.w3.org/Graphics/SVG/1.1/DTD/svg11.dtd"><svg class="icon" width="200px" height="200.00px" viewBox="0 0 1024 1024" version="1.1" xmlns="http://www.w3.org/2000/svg"><path fill="#000000" d="M691.8027954101564 812.9468383789062l41.713714599609375-35.15240478515624-39.06298828125-399.0179443359375c103.06768798828125-109.23843383789061 140.00152587890625-155.90505981445312 125.61904907226565-174.80621337890625-18.9019775390625-14.383300781249998-65.568603515625 22.5076904296875-174.80621337890625 125.61904907226565l-399.0187683105469-39.10665893554687-35.15240478515624 41.713714599609375 304.0317993164063 124.40286254882815-151.73327636718747 153.03762817382815-95.59423828125-25.506134033203125-66.82846069335938 46.40625 119.27526855468751 49.40386962890625c-3.390655517578125 2.780914306640625-28.809448242187504 32.458831787109375-30.72024536132812 51.31631469726563-0.08734130859374999 0.999481201171875 0.60809326171875 1.477386474609375 1.477386474609375 1.737762451171875 0.261199951171875 0.869293212890625 0.7819519042968749 1.6083984375000002 1.737762451171875 1.477386474609375 18.858306884765625-1.91162109375 48.53540039062501-27.33123779296875 51.31631469726563-30.72024536132812l49.40386962890625 119.27526855468751 46.40625-66.82928466796875-25.506134033203125-95.59423828125 153.03680419921875-151.73327636718747 124.40286254882815 304.0762939453125z" /></svg>