<?xml version="1.0" standalone="no"?><!DOCTYPE svg PUBLIC "-//W3C//DTD SVG 1.1//EN" "http://www.w3.org/Graphics/SVG/1.1/DTD/svg11.dtd"><svg class="icon" width="200px" height="200.00px" viewBox="0 0 1024 1024" version="1.1" xmlns="http://www.w3.org/2000/svg"><path fill="#000000" d="M780.8 241.152h85.504c24.576 0 48.128-9.728 65.536-27.136 17.408-17.408 27.136-40.96 27.136-65.536 0-51.2-41.472-92.672-92.672-92.672h-85.504c-51.2 0-92.672 41.472-92.672 92.672s41.472 92.672 92.672 92.672zM866.304 184.32h-85.504c-19.968 0-35.84-16.384-35.84-36.352s15.872-36.352 35.84-36.352h85.504c19.968 0 35.84 16.384 35.84 36.352s-15.872 36.352-35.84 36.352zM871.936 641.536h-4.096v0.512c-20.992 2.048-70.656 20.48-147.456 54.272-17.408-63.488-26.624-73.216-30.72-76.8-15.36-15.36-271.36-156.16-341.504-156.16-60.928 0-294.4 54.784-321.024 60.928h-0.512c-12.8 3.072-22.016 14.336-22.016 27.648V778.24c0 15.872 12.8 28.16 28.16 28.672H230.4c23.552 13.312 84.48 47.616 156.16 81.92 93.184 44.544 168.448 71.68 223.744 81.408 1.536 0.512 3.072 0.512 5.12 0.512 48.64 0 314.368-115.712 398.336-208.384 4.608-5.12 7.168-11.776 7.168-18.944-0.512-68.096-50.176-101.888-148.992-101.888zM61.44 749.568v-175.616c43.008-9.728 239.104-54.272 286.72-54.272 46.08 0 264.192 115.2 300.544 139.264 4.096 8.704 11.776 33.28 18.944 60.416-7.68 3.584-16.384 7.68-25.088 11.264l-2.048 1.024-132.096-85.504c-4.608-3.072-10.24-4.608-15.36-4.608H434.688c-15.36 0.512-27.648 13.824-27.648 29.184 0.512 14.848 12.8 27.136 27.648 27.648h50.688l138.24 89.6c8.192 5.12 18.432 6.144 27.136 2.048 92.16-43.008 202.752-90.112 221.184-91.648 29.696 0 51.712 3.072 66.56 9.216 13.312 5.632 21.504 13.824 24.064 24.576-20.992 19.968-72.704 61.44-188.928 117.76-74.24 35.84-139.264 60.416-157.696 62.976-132.608-24.576-361.984-158.208-364.544-159.744-4.608-2.56-9.216-4.096-14.336-4.096H61.44zM737.792 398.336c-51.2 0-92.672 41.472-92.672 92.672s41.472 92.672 92.672 92.672h85.504c51.2 0 92.672-41.472 92.672-92.672s-41.472-92.672-92.672-92.672h-85.504z m121.856 92.672c0 19.968-15.872 36.352-35.84 36.352h-85.504c-19.968 0-35.84-16.384-35.84-36.352s15.872-36.352 35.84-36.352h85.504c9.728 0 18.944 3.584 25.6 10.752 6.144 7.168 10.24 15.872 10.24 25.6zM523.776 370.176H609.28c51.2 0 92.672-41.472 92.672-92.672 0-51.2-41.472-93.184-92.672-93.184h-85.504c-51.2 0-92.672 41.472-92.672 92.672 0 51.712 41.472 93.184 92.672 93.184z m0-129.024H609.28c19.968 0 35.84 16.384 35.84 36.352s-15.872 36.352-35.84 36.352h-85.504c-19.968 0-35.84-16.384-35.84-36.352s15.872-36.352 35.84-36.352z" /></svg>