<?xml version="1.0" standalone="no"?><!DOCTYPE svg PUBLIC "-//W3C//DTD SVG 1.1//EN" "http://www.w3.org/Graphics/SVG/1.1/DTD/svg11.dtd"><svg class="icon" width="200px" height="200.00px" viewBox="0 0 1024 1024" version="1.1" xmlns="http://www.w3.org/2000/svg"><path fill="#000000" d="M827.392 296.96H708.608c29.696-45.056 58.368-104.448 43.008-151.552-7.168-19.456-24.576-46.08-72.704-56.32-39.936-8.192-74.752-1.024-103.424 21.504-45.056 34.816-63.488 99.328-70.656 141.312-7.168-41.984-25.6-106.496-70.656-140.288-28.672-22.528-63.488-29.696-103.424-21.504-48.128 10.24-65.536 35.84-72.704 56.32-15.36 46.08 14.336 105.472 43.008 150.528H182.272c-23.552 0-41.984 19.456-41.984 41.984v561.152c0 23.552 19.456 41.984 41.984 41.984h645.12c23.552 0 41.984-18.432 41.984-41.984V338.944c0-23.552-19.456-41.984-41.984-41.984z m-278.528-2.048c2.048-28.672 14.336-112.64 56.32-146.432 17.408-13.312 37.888-17.408 63.488-12.288 30.72 7.168 35.84 20.48 36.864 24.576 10.24 30.72-22.528 90.112-56.32 136.192h-100.352v-2.048zM304.128 162.816c2.048-5.12 6.144-18.432 36.864-24.576 25.6-5.12 46.08-1.024 63.488 12.288 41.984 32.768 55.296 115.712 56.32 145.408v1.024h-101.376c-33.792-46.08-65.536-104.448-55.296-134.144zM868.352 655.36h-327.68v281.6h-70.656V655.36h-327.68v-70.656h327.68V303.104h70.656v281.6h327.68V655.36z" /></svg>