<?xml version="1.0" standalone="no"?><!DOCTYPE svg PUBLIC "-//W3C//DTD SVG 1.1//EN" "http://www.w3.org/Graphics/SVG/1.1/DTD/svg11.dtd"><svg class="icon" width="200px" height="200.00px" viewBox="0 0 1024 1024" version="1.1" xmlns="http://www.w3.org/2000/svg"><path fill="#000000" d="M158.845775 74.626651l0 12.426007-0.143263 0 0.143263 0.106424 0 856.004845 706.451714 0L865.297488 74.626651 158.845775 74.626651zM665.796782 662.838404c25.134447 2.494821 31.967062 16.457834 33.382295 27.730575l0.101307 0.808412-0.101307 0.802272c-1.180895 9.441023-7.091512 25.279756-33.382295 25.279756L548.125779 717.459419l0 78.67485c-1.995447 20.208251-13.855566 30.982642-33.432437 30.982642-21.566178 0-33.438577-11.000542-33.438577-30.982642l0-78.67485L376.358717 717.459419c-29.100782 0-33.44574-16.343223-33.44574-26.082028 0-11.639085 5.702885-26.038026 32.858362-28.513404l105.482403-0.025583 0-44.137243L376.358717 618.701161c-29.100782 0-33.44574-16.343223-33.44574-26.082028 0-11.632945 5.702885-26.018583 32.858362-28.507264l71.00824-0.01842-77.398788-91.184769c-2.772136-1.180895-5.15337-3.795443-7.104815-7.80578-3.593851-5.241374-5.557576-12.8384-5.557576-22.450315 0-10.17371 4.705162-23.353894 27.117614-28.374234l1.162476-0.258896 1.174756 0.170892c13.003152 1.87572 24.26259 8.405437 33.464159 19.413142l95.346555 112.574938 107.813494-112.890117c6.864338-10.502192 18.307971-17.228383 33.30043-19.116383l1.212618-0.151449 1.180895 0.296759c19.658735 4.964058 25.469068 17.644869 26.877137 27.414373 0.069585 7.110955-2.64013 14.619976-8.222265 23.877827l-0.947582 1.212618 0 2.626827-2.399653 2.235924-89.858564 92.403526 81.857333 0c25.140587 2.5071 31.967062 16.457834 33.382295 27.723412l0.101307 0.808412-0.101307 0.802272c-1.180895 9.441023-7.091512 25.279756-33.382295 25.279756L548.125779 618.702184l0 44.137243L665.796782 662.839427zM519.594979 317.916676 254.103302 120.573099l511.859807-1.762133L519.594979 317.916676z" /></svg>