<?xml version="1.0" standalone="no"?><!DOCTYPE svg PUBLIC "-//W3C//DTD SVG 1.1//EN" "http://www.w3.org/Graphics/SVG/1.1/DTD/svg11.dtd"><svg class="icon" width="200px" height="200.00px" viewBox="0 0 1024 1024" version="1.1" xmlns="http://www.w3.org/2000/svg"><path fill="#000000" d="M438.963 125.734c0-51.768 41.967-93.734 93.733-93.734 51.768 0 93.734 41.967 93.734 93.734 0 51.766-41.967 93.733-93.734 93.733-51.766 0-93.733-41.965-93.733-93.733zM511.515 392.576c0 0 39.322 58.204 93.749 94.487s125.482 55.937 146.648 21.164c21.165-34.771-12.022-67.204-107.339-107.339-57.451-24.187-65.009-142.112-78.617-158.74-11.647-14.236-66.519-33.261-99.781-19.655-33.261 13.606-39.308 33.261-49.89 74.079-3.901 15.043-8.559 32.379-13.801 51.452 8.131-33.602 13.801-59.011 13.801-59.011s12.093-69.545-58.962-81.638c-71.057-12.096-93.733 84.662-104.316 111.876-10.583 27.213-43.843 120.947-7.559 163.277 36.283 42.332 90.71 55.938 110.363 22.676 1.575-2.665 3.287-6.295 5.104-10.713-48.458 167.242-106.649 360.076-116.979 396.23-15.117 52.914-3.037 56.695 18.128 64.256 21.166 7.558 60.474-18.142 81.638-66.52s105.827-266.080 114.899-273.641c9.071-7.56 78.63 30.987 107.354 68.784 28.724 37.795 19.654 74.078 13.606 119.437-6.049 45.353-30.238 158.739 24.188 157.229 54.427-1.513 65.007-46.868 80.127-149.672 15.117-102.803 40.821-126.993-18.142-179.906-58.96-52.913-166.314-145.889-163.291-162.517 3.024-16.631 9.071-75.593 9.071-75.593zM866.859 260.593c-9.010-1.698-17.7 4.236-19.397 13.251l-131.528 698.467c-1.698 9.015 4.234 17.699 13.25 19.399 1.040 0.195 2.072 0.29 3.092 0.29 7.833 0 14.805-5.563 16.308-13.54l131.529-698.467c1.697-9.015-4.236-17.701-13.254-19.399z" /></svg>