<?xml version="1.0" standalone="no"?><!DOCTYPE svg PUBLIC "-//W3C//DTD SVG 1.1//EN" "http://www.w3.org/Graphics/SVG/1.1/DTD/svg11.dtd"><svg class="icon" width="200px" height="200.00px" viewBox="0 0 1024 1024" version="1.1" xmlns="http://www.w3.org/2000/svg"><path fill="#000000" d="M1024 457.142857c0-95.817143-77.897143-173.714286-173.714286-173.714286h-0.182857c-4.388571-106.605714-92.525714-192-200.137143-192H364.982857c-107.794286 0-196.022857 85.668571-200.137143 192.457143C73.142857 288.548571 0 364.342857 0 457.142857c0 91.154286 70.582857 165.942857 160 172.982857V768c0 47.542857 33.28 87.497143 77.714286 97.828571v66.742858c0 15.177143 12.251429 27.428571 27.428571 27.428571s27.428571-12.251429 27.428572-27.428571v-64h438.857142v64c0 15.177143 12.251429 27.428571 27.428572 27.428571s27.428571-12.251429 27.428571-27.428571v-65.005715c49.005714-6.765714 86.857143-48.731429 86.857143-99.565714V629.211429C958.171429 617.965714 1024 545.188571 1024 457.142857zM364.982857 146.285714h284.982857C730.148571 146.285714 795.428571 211.565714 795.428571 291.84V292.571429c-64.457143 21.577143-112 80-117.851428 150.125714H676.571429V585.142857c0 25.234286-20.48 45.714286-45.714286 45.714286H393.142857c-25.234286 0-45.714286-20.48-45.714286-45.714286V438.857143h-1.097142c-7.588571-71.771429-58.88-130.468571-126.811429-149.12C220.617143 210.468571 285.44 146.285714 364.982857 146.285714zM850.285714 576c-11.062857 0-21.76-1.645714-32-4.48V768c0 25.234286-20.48 45.714286-45.714285 45.714286h-512c-25.234286 0-45.714286-20.48-45.714286-45.714286V603.428571h-0.548572v-34.742857c-12.708571 4.662857-26.331429 7.314286-40.594285 7.314286-65.554286 0-118.857143-53.302857-118.857143-118.857143s53.302857-118.857143 118.857143-118.857143c64.731429 0 117.485714 52.114286 118.765714 116.571429H292.571429V585.142857c0 55.497143 45.074286 100.571429 100.571428 100.571429h237.714286c55.497143 0 100.571429-45.074286 100.571428-100.571429V447.725714h0.457143C736.731429 386.56 787.931429 338.285714 850.285714 338.285714c65.554286 0 118.857143 53.302857 118.857143 118.857143s-53.302857 118.857143-118.857143 118.857143z" /></svg>