<?xml version="1.0" standalone="no"?><!DOCTYPE svg PUBLIC "-//W3C//DTD SVG 1.1//EN" "http://www.w3.org/Graphics/SVG/1.1/DTD/svg11.dtd"><svg class="icon" width="200px" height="200.00px" viewBox="0 0 1024 1024" version="1.1" xmlns="http://www.w3.org/2000/svg"><path fill="#000000" d="M642.5 245.8c-4.9-4.9-13-4.9-18 0-1 1-1.6 2.1-2.2 3.2l-16.7 22.8c-10 13.6-21.4 26.9-34.3 39.8-13.1 13.2-27.4 25-42.2 36.3-1.1 0.6-2 1.3-3 2.2-4.9 4.9-4.9 13 0 17.9 4.8 4.9 12.5 4.9 17.6 0.3 15.7-12 31.1-24.9 45.2-39 13.6-13.6 26-28.1 36.8-42.6l17.3-23.6c4.4-5.1 4.2-12.5-0.5-17.3zM479.2 675.2c-15.7 12.1-31.1 24.7-45.4 39-13.4 13.3-25.7 27.6-36.9 42.8l-17.3 23.5c-3.2 4.9-2.7 11.6 1.6 15.7 4.9 4.9 13 4.9 17.9 0 0.8-0.8 1.5-1.6 1.9-2.5l16-22c10-13.6 21.4-26.9 34.3-39.8 14.1-14.1 27.2-25 43.2-37.1 0.5-0.3 1-0.6 1.3-1.1 4.9-4.9 4.9-13 0-17.7-4.4-4.6-11.7-4.7-16.6-0.8z m99.9-115.5c-2.2 4.1-4.9 7.9-7.9 11.1-14.1-14.3-28.2-29.8-42.4-46 3.7-1.6 7.3-3.3 11.4-5.1 4.1-1.7 8.1-2.8 12.2-3.5 4.1-0.6 8.3-0.5 12.4 0.5 4.1 1.1 7.9 3.2 11.6 6.8 3.5 3.5 5.7 7.3 6.7 11.3 1 3.9 1.1 8.1 0.3 12.2-0.4 4.3-1.9 8.4-4.3 12.7z m-118.6-50.4c-7.2 0.3-13.3-2.1-18.7-7.3-2.4-2.2-4-4.9-4.9-8.1-1.1-3.2-1.5-6.6-1-10.5 0.3-3.8 1.5-7.8 3.5-11.7 1.9-3.9 4.6-7.9 8.1-11.7 12.7 12.7 25.6 26.6 38.3 40.9-9.8 5.2-18.2 8.1-25.3 8.4zM601 492.1c-8.3-6.8-16.5-11.6-24.8-13.8-8.3-2.4-16.5-3.2-24.9-2.7-8.3 0.6-16.6 2.5-25.2 5.7-8.4 3.3-17 6.8-25.6 10.9-13.5-15.6-27-30.9-40.6-45 6-5.6 12.1-8.3 17.8-8.6 5.7-0.3 11.3 0.3 16.4 1.6 5.2 1.3 10.2 2.5 14.6 3.3 4.6 1 8.4-0.1 11.9-3 3.7-3.2 5.7-7.3 5.9-12.1 0.3-4.9-1.6-9.8-5.7-14.4-5.3-6-11.7-9.8-19.4-11.1-7.6-1.3-15.4-1.3-23.5 0.5-7.9 1.7-15.6 4.8-22.7 9-7.1 4.3-13 8.5-17.3 12.8-1.6-1.6-3.4-3.2-4.9-4.6-1.7-1.6-4.1-2.5-6.8-2.5s-5.1 1.1-6.8 3.3c-1.8 2-2.7 4.6-2.4 7.1 0.4 2.7 1.3 4.8 3.2 6.3 1.6 1.4 3.4 2.7 4.9 4.1-6.5 7.8-11.7 16.3-15.9 25.4-4.3 9-6.8 18.1-7.6 26.8-1 8.9 0 16.8 2.7 24.3 2.7 7.4 7.6 13.9 15 20 11.9 9.8 25.8 13.9 42 13 16.2-1 33.5-5.7 52.2-15.8 14.9 17.1 29.8 34.2 44.6 49.9-6.3 5.2-11.7 8.4-16.6 9.3-4.9 1-9.2 1-13.2-0.3-3.9-1.3-7.6-3-10.9-5.2-3.2-2.2-6.5-4.2-10-5.9-3.2-1.6-6.7-2.5-10-2.5-3.5 0-7.2 1.6-11.2 5.1-4.1 3.7-6.2 7.8-6.2 12.5 0 4.8 2.2 9.4 6.3 14.3 4.3 4.7 9.8 8.9 16.5 12 6.7 3.2 14.3 5.2 22.7 5.7 8.4 0.6 17.1-0.6 26.5-4.1 9.4-3.3 18.6-9.5 27.6-18.7 4.4 4.3 8.9 8.4 13.2 12.2 1.9 1.6 4.1 2.4 6.8 2.2 2.7-0.2 4.9-1.3 6.8-3.5 1.9-2.2 2.7-4.8 2.4-7.3-0.3-2.7-1.3-4.8-3.2-6.2-4.4-3.5-8.9-7.3-13.3-11.3 7.5-9.2 13.6-19 18.1-28.5 4.4-9.7 7.2-19 7.9-27.7 1-8.7-0.1-16.5-3-23.6-2.1-6.7-7-12.8-14.3-18.9zM410.8 872c-83.3-83.4-168.4-168.2-251.7-251.6 71.5-231.3 381.5-221.2 453.1-452.6l251.7 251.4C792.4 650.7 482.4 640.5 410.8 872z m488.7-488.3L647.9 132.3c-12.6-12.5-30.6-17.5-47.8-13.3-9.1 2.2-17.1 6.8-23.5 13.3-5.7 5.7-10 12.8-12.6 20.6-11.4 36.9-31.1 69.1-60.3 98.2-38.9 38.8-89.7 68.3-143.4 99.6-57 33-115.8 67.2-164.1 115.4-41.1 41.1-68.9 86.7-85.4 139.7-5.5 17.9-0.6 37.2 12.6 50.4L375 907.5c12.6 12.6 30.6 17.5 47.8 13.3 9.1-2.2 17.1-6.8 23.5-13.3 5.7-5.7 10-12.8 12.6-20.8 11.4-36.9 31.1-69.1 60.3-98.1 38.9-38.8 89.6-68.3 143.4-99.4 57-33 115.8-67.2 164.1-115.4 41-40.9 68.9-86.7 85.2-139.7 5.6-17.9 0.8-37.2-12.4-50.4z" /></svg>