<?xml version="1.0" standalone="no"?><!DOCTYPE svg PUBLIC "-//W3C//DTD SVG 1.1//EN" "http://www.w3.org/Graphics/SVG/1.1/DTD/svg11.dtd"><svg t="1610518214840" class="icon" viewBox="0 0 1024 1024" version="1.1" xmlns="http://www.w3.org/2000/svg" p-id="2655" xmlns:xlink="http://www.w3.org/1999/xlink" width="200" height="200"><defs><style type="text/css"></style></defs><path d="M182.225455 897.698909c0 66.373818 54.993455 122.926545 122.810181 122.926546h409.483637c67.886545 0 122.833455-56.552727 122.833454-122.926546l81.92-643.770182H100.305455l81.92 643.770182z m456.54109-518.888727H719.127273V895.767273h-80.360728V378.810182z m-177.547636 0h97.163636V895.767273h-97.163636V378.810182z m-160.768 0h80.384V895.767273H300.450909V378.810182zM898.792727 97.559273H632.622545S614.283636 19.386182 591.639273 19.386182h-163.746909c-22.644364 0-40.96 78.173091-40.96 78.173091H120.785455c-33.931636 0-61.44 28.858182-61.44 62.045091v62.836363h900.817454v-62.836363c0-33.210182-27.508364-62.045091-61.393454-62.045091z" p-id="2656"></path></svg>