<?xml version="1.0" standalone="no"?><!DOCTYPE svg PUBLIC "-//W3C//DTD SVG 1.1//EN" "http://www.w3.org/Graphics/SVG/1.1/DTD/svg11.dtd"><svg class="icon" width="200px" height="200.00px" viewBox="0 0 1024 1024" version="1.1" xmlns="http://www.w3.org/2000/svg"><path fill="#000000" d="M938.963767 723.619722c-20.222577 23.769356-45.4921 45.809325-75.780941 65.598021l-0.807389 0.518816-0.057305 0.056282c-90.521666 58.732659-213.898625 91.097788-347.546507 91.097788-114.175389 0-224.889957-24.692379-311.747163-69.576635-49.097208-25.38618-88.934518-56.597019-118.213355-91.616604 6.461155 63.693648 54.895261 126.115326 143.772474 172.040285 82.183767 42.463114 184.504154 63.348794 286.188045 63.348794 117.405967 0 233.946216-27.809369 317.833789-82.561367l0.172939-0.058328C898.549312 829.544193 933.367305 776.929882 938.963767 723.619722L938.963767 723.619722zM863.182826 659.348929l-0.807389 0.51984-0.057305 0.056282c-90.521666 58.789964-213.898625 91.099834-347.546507 91.099834-114.175389 0-224.889957-24.695448-311.747163-69.578682-49.097208-25.327852-88.934518-56.598043-118.213355-91.617627 6.461155 63.693648 54.895261 126.118396 143.772474 172.041308 82.183767 42.462091 184.504154 63.404052 286.188045 63.404052 117.405967 0 233.946216-27.864628 317.833789-82.558297l0.172939-0.113587c65.798589-42.926672 100.588953-95.484701 106.185414-148.791791C918.741189 617.521289 893.471666 639.618563 863.182826 659.348929L863.182826 659.348929zM863.182826 529.480116l-0.807389 0.576121-0.057305 0c-90.521666 58.790988-213.898625 91.155093-347.546507 91.155093-114.175389 0-224.889957-24.74866-311.747163-69.576635-49.097208-25.38618-88.934518-56.655348-118.213355-91.617627 6.461155 63.693648 54.895261 126.060067 143.772474 171.985026 82.183767 42.461067 184.504154 63.405075 286.188045 63.405075 117.405967 0 233.946216-27.865651 317.833789-82.561367l0.172939-0.113587c65.798589-42.923602 100.588953-95.483678 106.185414-148.791791C918.741189 487.652476 893.471666 509.74975 863.182826 529.480116L863.182826 529.480116zM84.29229 307.301921c-4.210905 71.482031 44.654013 143.714146 144.292314 195.177238 177.060625 91.50097 447.442682 82.906222 604.021833-19.154245l0.172939-0.115634c68.655659-44.827975 103.962793-100.097766 107.108436-155.830091 0.231267-3.461845-0.173962-6.92369-0.231267-10.384511-0.058328-4.38589 0.144286-8.768711-0.318248-13.096273-6.605442-63.578014-55.039547-125.771495-143.713123-171.579797C713.43936 89.855494 611.147626 68.912509 509.463736 68.912509c-7.644097 0-15.288195 0.461511-22.903639 0.691755-0.432859 0-0.865717 0.058328-1.298576 0.058328-13.211906 0.404206-26.336832 1.211595-39.433104 2.307555-0.577145 0.057305-1.125637 0.115634-1.673106 0.172939-13.037944 1.153266-25.962302 2.654456-38.770002 4.499477-0.518816 0.115634-1.066285 0.172939-1.587148 0.288572-12.893658 1.904373-25.615401 4.097318-38.164205 6.693446-0.345877 0.057305-0.633427 0.171915-0.951675 0.231267-64.560388 13.44215-124.44529 35.885302-173.252903 67.673286l-0.116657 0.115634C122.773719 196.358133 87.435886 251.628948 84.29229 307.301921L84.29229 307.301921zM786.884093 459.210703l-0.027629 0.057305c-134.167722 87.519286-366.066303 94.904487-517.742794 16.500812-151.819754-78.405721-165.92603-212.94695-31.760354-300.410977 134.252657-87.635943 365.920994-95.021144 517.742794-16.558118C906.770554 237.205447 921.165402 371.688347 786.884093 459.210703L786.884093 459.210703zM255.093351 184.53076C129.812019 266.512936 143.225517 391.996882 284.834722 465.556225c142.273331 73.096808 358.508163 66.289776 484.278635-15.462157 125.282355-82.039481 111.985514-207.581756-29.740348-281.025465C597.215312 95.856162 380.894522 102.779851 255.093351 184.53076L255.093351 184.53076zM379.394355 423.151439l-19.557428 12.750395c-7.442506 4.846378-10.126638 4.846378-18.922978 0.288572l-9.866718-5.076622c-8.884344-4.557806-9.17394-6.172583-1.731434-10.961656l19.558451-12.808724c-16.616446-8.595772-75.463716-50.76929-62.424748-59.250452 1.326205-0.865717 1.326205-0.865717 4.876054-2.020006l50.857295-16.500812c1.2689-0.403183 5.913687-1.095961 7.93267-0.057305 2.969635 1.557472 18.865673 29.65439 45.89426 47.13553l85.271082-55.616692c-18.317181-23.193235-59.566654-62.36642-2.163269-99.810217 64.039525-41.769312 146.19464-20.596084 169.734776-9.518794l21.317515-13.903661c7.385201-4.846378 10.240225-4.904707 19.038612-0.346901l10.008958 5.135974c8.682753 4.499477 8.855692 6.172583 1.471514 10.961656l-21.347191 13.903661c13.501502 8.018627 66.867944 46.731324 52.068889 56.425104-1.759063 1.153266-3.576455 1.730411-6.374174 2.365884l-44.799322 11.423167c-3.056616 0.980327-5.884011 1.038656-7.902994 0-3.00238-1.557472-17.395182-29.423123-38.685068-40.384779l-80.510662 52.500725c18.085914 25.616424 53.538357 65.828264-2.193968 102.176101C490.4548 451.421296 416.779823 436.767552 379.394355 423.151439L379.394355 423.151439zM491.753375 384.497071c25.239847-16.442484 12.663414-33.69338 6.577812-42.923602l-75.203796 49.097208C440.810123 395.804604 467.866339 400.073838 491.753375 384.497071L491.753375 384.497071zM535.657304 289.648866l70.992891-46.327118c-12.088316-3.634784-41.800012-11.884678-67.473741 4.846378C515.607666 263.513626 529.196149 281.110399 535.657304 289.648866L535.657304 289.648866zM535.657304 289.648866" /></svg>