<?xml version="1.0" standalone="no"?><!DOCTYPE svg PUBLIC "-//W3C//DTD SVG 1.1//EN" "http://www.w3.org/Graphics/SVG/1.1/DTD/svg11.dtd"><svg class="icon" width="200px" height="175.04px" viewBox="0 0 1170 1024" version="1.1" xmlns="http://www.w3.org/2000/svg"><path fill="#000000" d="M1064.709224 814.393469H86.580245a34.836898 34.836898 0 0 0-34.71151 34.795102c0 19.121633 15.506286 34.669714 34.690612 34.774205h978.149877c12.455184 0 23.990857-6.624653 30.218449-17.387103a34.648816 34.648816 0 0 0 0-34.774204 34.941388 34.941388 0 0 0-30.218449-17.387102z m-104.824163 139.117715H191.38351c-19.267918 0-34.899592 15.56898-34.899592 34.774204 0 19.205224 15.631673 34.774204 34.899592 34.774204h768.501551c19.288816 0 34.899592-15.56898 34.899592-34.774204 0-19.226122-15.610776-34.774204-34.899592-34.774204zM1063.246367 591.412245c2.925714 0.81502 5.914122 1.400163 8.902531 1.400163 10.950531 0 21.692082-5.099102 28.483918-14.565877a360.740571 360.740571 0 0 0 68.796082-212.28147C1169.115429 164.404245 1005.045551 1.107592 802.648816 0.940408c-145.700571 0.773224-277.29502 86.851918-335.913796 219.700245l-53.248-74.187755a34.899592 34.899592 0 0 0-57.991836 1.734531L6.164898 704.428408a34.690612 34.690612 0 0 0 11.096816 47.939919c16.363102 10.177306 37.908898 5.22449 48.128-11.075919l321.661388-512.125388 318.965551 444.416c6.269388 8.714449 16.300408 14.106122 27.083755 14.461388 10.971429 0.877714 21.190531-4.221388 28.128653-12.434286l146.369306-174.811428 183.107919 242.896979c11.702857 14.921143 33.227755 17.763265 48.441469 6.436572a34.690612 34.690612 0 0 0 7.418776-48.107102L1063.246367 591.412245z m-25.349224-33.603918l-100.937143-133.935021a35.108571 35.108571 0 0 0-54.773551-1.462857l-145.658776 174.038204-228.163918-317.920653c7.98302-3.698939 14.210612-10.323592 17.387102-18.473796 44.470857-113.831184 154.268735-189.042939 276.897959-189.64898 163.84 0.10449 296.646531 132.30498 296.897306 295.497143a291.73551 291.73551 0 0 1-55.734857 171.760327 34.523429 34.523429 0 0 0-5.914122 20.145633z" /></svg>