<?xml version="1.0" standalone="no"?><!DOCTYPE svg PUBLIC "-//W3C//DTD SVG 1.1//EN" "http://www.w3.org/Graphics/SVG/1.1/DTD/svg11.dtd"><svg class="icon" width="200px" height="153.75px" viewBox="0 0 1332 1024" version="1.1" xmlns="http://www.w3.org/2000/svg"><path fill="#000000" d="M1125.251007 483.283605a55.294312 55.294312 0 0 0 1.791352-14.151054 56.452595 56.452595 0 0 0-29.103997-49.606067 55.053589 55.053589 0 0 0-27.192284-7.188854c-0.148498 0-0.293869 0.006253-0.442367 0.001563-15.038915 0-29.471334 6.135302-39.97247 16.564534-28.936742-9.636723-59.450686-14.513702-90.866559-14.513702h-0.737799c-76.80304 0-157.50141 29.243116-227.228142 82.339661l-9.843056 7.495229 26.59204 59.688283 12.283109-2.491636a45.287126 45.287126 0 0 1 8.775436-0.909744c6.905927 0.039078 12.959946 1.558445 18.468432 4.620625 8.626938 4.828522 14.716909 12.863032 18.616929 24.558402l10.330755 32.414716 33.147825-8.351826a49.062096 49.062096 0 0 1 12.053329-1.500609h0.112545c6.926248 0 12.88179 1.46622 18.279293 4.522147 8.412789 4.703471 14.640316 12.974015 18.512199 24.58185l10.28386 32.425658 32.481931-8.204892-119.145221 216.884882c-50.751844-9.231871-100.579875-13.92909-148.308618-13.971295-30.603043 0.039078-62.308096 1.983617-94.460205 5.783597l-67.635257-468.147776a77.786251 77.786251 0 0 1 5.924279 4.240783l28.131727 22.734225 23.024968-28.152048c14.568412-17.896324 31.794151-28.349003 51.197338-31.067294l0.201644-0.029699a60.504239 60.504239 0 0 1 9.652354-0.711227c16.28317 0 32.491309 5.55069 48.14141 16.475436l27.801906 19.517294 21.372735-26.315365c14.563722-17.901014 31.867619-28.378703 51.400545-31.136072 3.126269-0.436114 6.329131-0.656516 9.561692-0.656516h0.190703c19.592325 0 39.326895 8.132988 57.073159 23.517355l9.985301 8.658201 51.947642-42.823627-6.577669-11.449959C784.517433 160.865275 631.58819 58.283025 469.774093 52.107081c-6.88717-30.063762-34.029433-52.099266-65.326508-52.107081-3.574888 0-6.643321 0.215713-9.646102 0.6784-32.686701 4.695655-57.393602 33.150952-57.488953 66.28002 0 0.737799 0.010942 1.470909 0.034389 2.197767C185.93548 115.570333 66.279114 250.326577 15.73673 432.489557l-3.296651 11.88451 56.959051 31.525292 8.317437-9.13652c13.786844-15.143645 29.793339-24.078521 47.552108-26.551399 3.212241-0.44393 6.494823-0.619001 9.760211-0.659643 16.389463 0 32.619486 5.52568 48.192993 16.389463l27.836295 19.570442 21.296142-26.388833c14.510576-17.819731 31.786336-28.258342 51.380223-31.026653a72.735764 72.735764 0 0 1 9.622655-0.726857c16.498882 0.087536 32.722653 5.646041 48.205498 16.514514L369.373977 453.455877l21.372736-26.366949c7.807856-9.538245 16.694274-16.356637 27.740944-21.103876l69.354705 479.955692c-111.87821 22.752983-193.290933 61.082598-209.01919 68.815424l-0.959765 0.470503c-14.990458 7.699999-22.720157 24.522451-18.784185 40.950992A36.316299 36.316299 0 0 0 294.445136 1023.999891H1014.03244a36.249084 36.249084 0 0 0 35.344029-27.819101 36.233453 36.233453 0 0 0-18.837331-40.979129l-0.745615-0.365773c-16.147177-7.978237-72.263698-34.182621-153.351289-55.799205l100.406368-182.708514 2.360332 9.544498 35.455012-8.694152a50.265709 50.265709 0 0 1 12.451928-1.57564c6.737109 0 12.634814 1.464657 17.940092 4.422107 8.656638 4.906679 14.945127 13.197543 18.66226 24.566218l10.326065 32.166178 32.991513-7.93447c4.05477-1.016037 8.233028-1.531872 12.419102-1.531871 6.740235 0 12.716097 1.46622 18.265224 4.478379 10.138489 5.797665 16.863093 16.101846 19.984671 30.629617l2.763622 12.861468 67.32263-2.691717 1.641291-13.153775c2.430674-19.476653 3.662424-38.559397 3.662424-56.704259 0.085972-105.578779-39.072105-199.404351-107.843761-259.427145zM461.111202 324.856819c-8.484693 0-17.549309 0.68309-26.832763 2.011754-29.543238 4.011003-56.122773 15.018594-77.537713 32.019243-20.364513-9.45071-41.426185-14.230775-62.7192-14.230775-7.005968-0.006253-13.911895 0.425173-20.502069 1.344296-27.600262 3.878136-53.577991 15.826735-75.744798 34.743786-20.236336-9.288144-41.293318-13.988489-62.74421-13.988489a140.494509 140.494509 0 0 0-18.638813 1.208303c26.976571-58.967678 63.433552-110.443253 106.510407-150.120291 51.216095-47.175393 109.671064-76.937469 173.786143-88.470274l12.495695-2.285302 18.282419-1.500609c9.113073-0.714352 18.330876-1.008222 27.448638-1.062931 109.857077 0 218.4996 55.766379 302.352375 154.156303a139.952102 139.952102 0 0 0-8.606617 0.944133c-27.647156 3.923467-53.635827 15.870502-75.78544 34.743786-20.25822-9.322533-41.30895-14.040072-62.730142-14.040073-6.293179 0-12.798944 0.44862-20.011245 1.3865-27.182905 3.754649-52.908969 15.521923-75.008561 34.210757-16.714595-7.520239-34.826632-11.243625-54.014106-11.070117z m704.41865 397.061119c-14.355825-8.05952-30.195065-11.803227-45.893623-11.803227h-0.170382c-2.760495 0-5.49598 0.103167-8.225212 0.323568-8.481567-16.461367-21.192975-30.798435-38.168613-40.286659-14.330815-8.072025-30.279474-11.723507-45.946769-11.723508-2.632318 0-5.191169 0.05471-7.821924 0.231344-7.943848-15.320279-21.2852-28.277099-38.731341-37.58869-16.675517-9.366301-33.691796-13.818107-49.812401-13.761834-1.519367 0-2.857409 0-4.304871 0.103167-8.425294-16.633312-21.236742-31.042284-38.313985-40.549267a94.199161 94.199161 0 0 0-46.089014-11.723507c-2.716727 0-5.47097 0.103167-8.206455 0.273549-8.498761-16.400405-21.163275-30.670258-38.137351-40.139726-1.606902-0.861287-3.218493-1.722574-4.84259-2.47913 48.213314-27.111001 99.223075-41.307387 147.869377-41.307387 36.500749 0 71.635318 7.918838 104.112559 24.344253l7.62028 3.846874 10.454242 6.662078c70.492667 44.696262 110.995039 126.43099 114.712173 222.038536a93.314427 93.314427 0 0 0-10.1041-6.460434z" /></svg>