<?xml version="1.0" standalone="no"?><!DOCTYPE svg PUBLIC "-//W3C//DTD SVG 1.1//EN" "http://www.w3.org/Graphics/SVG/1.1/DTD/svg11.dtd"><svg t="1610544722265" class="icon" viewBox="0 0 1024 1024" version="1.1" xmlns="http://www.w3.org/2000/svg" p-id="2648" xmlns:xlink="http://www.w3.org/1999/xlink" width="200" height="200"><defs><style type="text/css"></style></defs><path d="M716.302671 817.370095a17.304992 17.304992 0 0 1-13.772993-6.833997 130.55794 130.55794 0 0 1 25.241988-182.959916 17.919992 17.919992 0 0 1 24.574989 3.199998 17.484992 17.484992 0 0 1-3.199999 24.343989A96.407956 96.407956 0 0 0 713.999672 755.190123a90.084959 90.084959 0 0 0 16.972992 34.149985 17.484992 17.484992 0 0 1-3.225998 24.344989 22.62999 22.62999 0 0 1-11.469995 3.634998z m278.856872 206.614905a31.615985 31.615985 0 0 1-23.884989-11.826995l-79.639963-106.493951a28.849987 28.849987 0 0 1 6.194997-40.498981 29.413986 29.413986 0 0 1 40.959981 6.143997l79.639964 106.494951a28.824987 28.824987 0 0 1-6.194998 40.497982 25.957988 25.957988 0 0 1-17.074992 5.682997z m-205.411905-98.301955A205.487906 205.487906 0 1 1 997.104542 720.220139a206.588905 206.588905 0 0 1-207.356904 205.462906z m0-376.595827A171.132921 171.132921 0 1 0 962.339558 720.195139a171.644921 171.644921 0 0 0-172.59292-171.107921zM475.999782 1001.68801H141.821935A141.463935 141.463935 0 0 1 0 861.044075V140.620405A141.463935 141.463935 0 0 1 141.821935 0.00147h645.621704A141.463935 141.463935 0 0 1 929.265573 140.620405v238.921891a24.549989 24.549989 0 0 1-49.099977 0V140.620405a92.465958 92.465958 0 0 0-92.951957-92.157957H141.821935A92.465958 92.465958 0 0 0 48.869978 140.620405v720.19367a92.465958 92.465958 0 0 0 92.951957 92.159958H476.459781a24.191989 24.191989 0 0 1 24.575989 24.343988 24.600989 24.600989 0 0 1-25.036988 24.370989z m301.793861-707.291675h-363.999833a24.344989 24.344989 0 1 1 0-48.639978h364.229833a24.344989 24.344989 0 1 1-0.23 48.639978z m-279.316872 375.289828H143.203934a24.344989 24.344989 0 1 1 0-48.638978h355.271837a24.344989 24.344989 0 1 1 0 48.639978z m0 162.480925H143.203934a24.344989 24.344989 0 1 1 0-48.638978h355.271837a24.344989 24.344989 0 1 1 0 48.639978z m279.316872-374.111828h-363.999833a24.344989 24.344989 0 1 1 0-48.639978h364.229833a24.191989 24.191989 0 0 1 24.549989 24.345989 24.677989 24.677989 0 0 1-24.779989 24.293989z m-491.511774 21.16999H171.516921a73.189966 73.189966 0 0 1-73.444966-72.804967V283.08134a73.189966 73.189966 0 0 1 73.444966-72.829967H286.509868a73.189966 73.189966 0 0 1 73.444967 72.829967v123.339943a72.907967 72.907967 0 0 1-73.546966 72.803967zM171.516921 258.941351a24.472989 24.472989 0 0 0-24.549988 24.344989v123.339943a24.472989 24.472989 0 0 0 24.549988 24.343989H286.509868a24.472989 24.472989 0 0 0 24.549989-24.344989v-123.339943a24.472989 24.472989 0 0 0-24.549989-24.343989H171.516921z" fill="#515151" p-id="2649"></path></svg>