<?xml version="1.0" standalone="no"?><!DOCTYPE svg PUBLIC "-//W3C//DTD SVG 1.1//EN" "http://www.w3.org/Graphics/SVG/1.1/DTD/svg11.dtd"><svg class="icon" width="200px" height="200.00px" viewBox="0 0 1024 1024" version="1.1" xmlns="http://www.w3.org/2000/svg"><path fill="#000000" d="M196.923 810.535h630.154v78.77H196.923z m433.231-145.723H393.846c-17.33 0-31.508-14.178-31.508-31.507s14.179-31.508 31.508-31.508h236.308c17.33 0 31.508 14.178 31.508 31.508s-14.179 31.507-31.508 31.507z m0 100.825H393.846c-17.33 0-31.508-14.179-31.508-31.508s14.179-31.507 31.508-31.507h236.308c17.33 0 31.508 14.178 31.508 31.507s-14.179 31.508-31.508 31.508z"  /><path fill="#000000" d="M512 901.12c-17.33 0-31.508-14.178-31.508-31.508V633.305c0-17.33 14.179-31.508 31.508-31.508s31.508 14.178 31.508 31.508v236.307c0 17.33-14.179 31.508-31.508 31.508z"  /><path fill="#000000" d="M512 664.812c-7.877 0-15.754-3.15-22.055-9.452L371.79 537.206c-12.603-12.603-12.603-32.295 0-44.898 12.603-12.603 32.295-12.603 44.898 0L512 589.194l96.098-96.099c12.604-12.603 32.296-12.603 44.899 0 12.603 12.603 12.603 32.296 0 44.899L534.843 656.148c-7.09 5.514-14.966 8.664-22.843 8.664z"  /><path fill="#000000" d="M118.154 526.966c-7.877 0-15.754-3.15-22.056-9.452-12.603-12.603-12.603-32.296 0-44.899l337.92-337.92c20.48-20.48 48.837-32.295 77.982-32.295s57.502 11.815 77.982 32.295l337.92 337.92c12.603 12.603 12.603 32.296 0 44.899-12.604 12.603-32.296 12.603-44.899 0l-337.92-337.92c-8.665-8.665-20.48-14.179-33.083-14.179s-24.418 4.727-33.083 14.179L140.209 518.302c-5.514 5.513-14.178 8.664-22.055 8.664z"  /><path fill="#000000" d="M827.077 920.812H196.923c-8.665 0-16.541-3.15-22.055-9.452-6.302-6.302-9.453-14.178-9.453-22.055V416.689c0-17.329 14.179-31.507 31.508-31.507s31.508 14.178 31.508 31.507v441.108h567.138V416.689c0-17.329 14.179-31.507 31.508-31.507s31.508 14.178 31.508 31.507v472.616c0 17.329-14.179 31.507-31.508 31.507z"  /></svg>