<?xml version="1.0" standalone="no"?><!DOCTYPE svg PUBLIC "-//W3C//DTD SVG 1.1//EN" "http://www.w3.org/Graphics/SVG/1.1/DTD/svg11.dtd"><svg class="icon" width="200px" height="196.17px" viewBox="0 0 1044 1024" version="1.1" xmlns="http://www.w3.org/2000/svg"><path fill="#000000" d="M419.446061 338.913817c23.136349 0 42.757252 15.014028 49.686167 35.829714l74.252948 0c6.922025-20.815686 26.544306-35.829714 49.686167-35.829714 22.721551 0 42.058572 14.475205 49.303065 34.705212l0 0 84.49749-35.7112c-0.737265-8.366238-1.926536-16.047578-3.628448-22.630599-2.498434-7.843951-5.539825-14.00115-9.361202-17.268544-24.686673-21.124373-230.959715-63.30008-270.477134-133.990728-38.489381 65.200433-87.07723 92.31388-120.026786 110.385837-9.318482 5.345518-21.365534 29.126801-25.575526 63.38552l72.839053 34.510905C378.244645 352.764758 397.219235 338.913817 419.446061 338.913817L419.446061 338.913817zM419.446061 338.913817M644.6744 400.152311 644.6744 400.152311c-4.215504 24.692185-25.709198 43.494517-51.601679 43.494517-25.91453 0-47.413736-18.829893-51.612703-43.548261l0 0-70.399876 0 0 0c-4.198967 24.718369-25.698173 43.548261-51.612703 43.548261-26.318303 0-48.097257-19.422461-51.80701-44.711349l-71.368656-33.81636c0.214978 25.472171 4.904537 54.572789 17.010846 85.084546 34.123668 77.753236 95.070012 145.656056 201.380908 145.656056 96.727826 0 155.925404-56.145162 191.502932-124.807297 0 0 0.016537-0.064769 0.037208-0.081306 1.641277-3.175064 3.117185-6.427299 4.650973-9.651974 10.146699-24.249826 16.316301-62.448436 16.881308-96.474261L644.6744 400.152311 644.6744 400.152311zM644.6744 400.152311M516.864297 744.879637 370.950543 579.989914C381.753201 654.501939 449.698742 744.750099 516.864297 744.879637L516.864297 744.879637zM516.864297 744.879637M721.275572 72.570881c-83.954532-99.25382-233.582175-84.434099-295.141758-28.579709-9.453532 8.559167-81.522246-1.220966-113.653231 29.806188-32.115826 30.996837-72.854211 86.83469-72.854211 181.146766 0 94.310698 48.162026 153.615765 48.162026 153.615765s-0.957756-6.723584-2.067099-16.935052c-2.88567-26.613209-6.858634-77.569953 2.067099-100.722839 12.730573-25.838736 96.324052-35.957874 155.619473-136.45471 39.517419 70.712697 245.790461 112.888405 270.477134 134.005887 20.052237 17.129359 19.496877 111.758391 22.904834 130.69026 0.785498 4.397408 1.776327 4.721254 3.315627-0.96878 8.112674-30.172753 50.336614-90.053852 51.58652-123.531208C792.939135 261.145423 805.272825 171.812299 721.275572 72.570881L721.275572 72.570881zM721.275572 72.570881M662.798723 579.925145l-145.934426 164.953113C584.049145 744.750099 652.011223 654.422011 662.798723 579.925145L662.798723 579.925145zM662.798723 579.925145M698.682181 589.399348c-13.990125 84.19156-84.567772 177.53899-163.11753 190.813899-0.19982 0.066147-0.376212 0.081306-0.576032 0.129538-4.941744 128.413695-65.985931 204.60007-165.701403 204.60007-90.016644 0-123.31623-58.545753-128.348926-89.54259-0.253564-1.561349 0.037208-3.030367 0.183283-4.543483-52.566325-8.634961-92.739703-54.18004-92.739703-109.195188 0-61.183371 49.62691-110.804769 110.78272-110.804769 61.173725 0 110.795123 49.621398 110.795123 110.804769 0 54.859427-39.937729 100.302529-92.293209 109.130419 2.169076 9.73328 16.596048 57.226944 91.620713 57.226944 106.035283 0 126.108191-106.670571 128.875347-167.807088-78.527709-13.274909-149.068148-106.542411-163.100993-190.732593C178.273499 635.182833-0.002756 740.610388-0.002756 948.020335l0 20.585549c0 30.597198 24.810699 55.385848 55.396872 55.385848l465.075201 0 458.158689 0c30.586173 0 55.39136-24.78865 55.39136-55.385848l0-20.585549C1034.026256 740.502899 855.528133 635.027111 698.682181 589.399348L698.682181 589.399348zM698.682181 589.399348M259.455363 707.586417c-40.765946 0-73.854687 33.073582-73.854687 73.849175 0 40.825203 33.088741 73.882249 73.854687 73.882249 40.793508 0 73.861578-33.057045 73.861578-73.882249C333.31694 740.659999 300.24887 707.586417 259.455363 707.586417L259.455363 707.586417zM259.455363 835.761707c-30.543453 0-55.385848-24.842394-55.385848-55.385848 0-30.548965 24.842394-55.407897 55.385848-55.407897s55.39825 24.858931 55.39825 55.407897C314.853613 810.917934 289.998816 835.761707 259.455363 835.761707L259.455363 835.761707zM259.455363 835.761707M259.455363 743.446448c-20.395376 0-36.928033 16.547816-36.928033 36.92252 0 20.396754 16.532657 36.928033 36.928033 36.928033 20.396754 0 36.933545-16.525767 36.933545-36.928033C296.388907 759.988752 279.852116 743.446448 259.455363 743.446448L259.455363 743.446448zM259.455363 743.446448" /></svg>