<?xml version="1.0" standalone="no"?><!DOCTYPE svg PUBLIC "-//W3C//DTD SVG 1.1//EN" "http://www.w3.org/Graphics/SVG/1.1/DTD/svg11.dtd"><svg class="icon" width="200px" height="193.94px" viewBox="0 0 1056 1024" version="1.1" xmlns="http://www.w3.org/2000/svg"><path fill="#000000" d="M387.84 282.656a154.368 154.368 0 0 1 302.08 0h127.424a64 64 0 0 1 63.936 60.928l23.36 485.344A64 64 0 0 1 840.704 896H236.608a64 64 0 0 1-63.904-67.072l23.36-485.344a64 64 0 0 1 63.936-60.928h127.808z m39.68 0h222.72a115.776 115.776 0 0 0-222.72 0z m-99.392 360.704l-19.104 17.12c13.088 14.848 29.472 22.304 48.96 22.304 14.336-0.16 26.496-3.616 36.352-10.304 9.824-6.56 15.328-15.872 16.576-27.936 0.96-10.304-0.768-18.784-5.056-25.504-4.576-6.88-12.704-10.784-24.384-11.744l-18.56-1.536c-5.408-0.64-9.056-2.144-10.88-4.448a7.68 7.68 0 0 1-2.368-7.296 16.64 16.64 0 0 1 5.888-10.784c3.168-2.816 8.224-4.192 15.2-4.192 6.112 0 11.424 0.96 15.872 2.976 4.544 2.24 8.768 5.088 12.736 8.512l15.552-18.08a56.384 56.384 0 0 0-16.928-12.576 56 56 0 0 0-10.88-3.36 74.56 74.56 0 0 0-13.376-1.088c-11.616 0-21.664 3.2-30.176 9.6-8.768 6.4-14.272 15.968-16.416 28.736-1.504 10.624 0.32 18.88 5.568 24.8 5.12 6.08 12.48 9.6 22.016 10.56l20.16 1.92a17.12 17.12 0 0 1 9.984 2.976c2.336 1.76 3.264 4.864 2.784 9.344a15.104 15.104 0 0 1-7.68 11.744 32.448 32.448 0 0 1-17.12 4.16c-15.168 0-26.784-5.28-34.72-15.904z m116.64-136.672l-12.96 174.656h24l4.256-74.048c0.512-8.704 3.008-15.328 7.488-19.872a21.408 21.408 0 0 1 16.192-6.944c6.4 0 11.584 2.304 15.488 6.944 4.032 4.544 5.952 11.2 5.76 19.872l-1.824 74.048h24l0.64-82.656c-0.224-14.24-4.064-24.992-11.456-32.352-7.36-7.264-15.552-10.88-24.576-10.88-11.648 0-21.344 4.896-29.12 14.72h-0.448l3.648-63.488h-21.12z m106.976 112.352c0.128 13.12 1.216 23.072 3.328 29.952a46.208 46.208 0 0 0 23.936 28.384c5.92 3.424 13.44 5.248 22.56 5.408 9.44-0.16 16.96-1.984 22.592-5.408a23.648 23.648 0 0 0 7.36-5.12c2.048-1.792 3.808-3.584 5.184-5.44a39.04 39.04 0 0 0 8.672-17.824c1.344-6.88 1.504-16.864 0.48-29.952-1.024-13.12-2.688-23.168-5.024-30.176a44.768 44.768 0 0 0-10.656-17.376 45.44 45.44 0 0 0-12.992-11.136c-5.504-3.136-12.544-4.768-21.152-4.928-8.32 0.16-15.072 1.792-20.32 4.928a41.824 41.824 0 0 0-12.416 11.136 44.832 44.832 0 0 0-8.96 17.376c-1.824 7.04-2.72 17.088-2.56 30.176z m71.136 0.256c0.544 8.448 0.544 14.688 0.032 18.688a23.872 23.872 0 0 1-3.936 10.752 20.544 20.544 0 0 1-7.328 6.368 22.56 22.56 0 0 1-11.168 2.624 24.288 24.288 0 0 1-11.168-2.624 30.048 30.048 0 0 1-8.096-6.368 33.184 33.184 0 0 1-4.672-10.752 96.32 96.32 0 0 1-1.824-18.944 100.896 100.896 0 0 1 0.8-19.168 29.952 29.952 0 0 1 3.936-10.304 19.584 19.584 0 0 1 7.296-6.592 21.728 21.728 0 0 1 10.368-2.496c4.064 0 7.68 0.832 10.816 2.496 3.296 1.6 5.856 3.808 7.68 6.592 2.368 2.944 4.064 6.4 4.992 10.304 0.96 4.064 1.728 10.56 2.272 19.424z m41.152-62.304l16.64 174.656h24.832l-7.104-63.616c4.8 4.48 10.016 8 15.488 10.56 5.184 2.784 10.848 4.16 16.96 4.16a36.48 36.48 0 0 0 18.432-4.64c4.896-2.88 8.64-6.72 11.168-11.52a30.208 30.208 0 0 0 4.16-15.68c0.128-6.4-1.024-16.96-3.392-31.616-2.432-15.104-4.704-25.824-6.784-32.128-2.176-6.4-5.088-11.52-8.736-15.456a39.104 39.104 0 0 0-31.808-16.288 31.552 31.552 0 0 0-26.464 14.496l-1.44-12.928h-21.952z m56.384 100.736a21.888 21.888 0 0 1-12.992-3.584 23.712 23.712 0 0 1-8.128-9.12 52.896 52.896 0 0 1-4.224-12.576 135.392 135.392 0 0 1-3.04-27.2 47.488 47.488 0 0 1 1.312-12.192 17.28 17.28 0 0 1 5.696-9.12c2.656-2.304 6.464-3.456 11.456-3.456 5.28 0 9.6 0.96 12.928 2.976 3.36 2.176 5.952 5.12 7.776 8.864 1.952 3.616 3.52 7.744 4.736 12.48a490.016 490.016 0 0 1 4.064 28.256c0.16 4.544-0.256 8.704-1.216 12.48a15.52 15.52 0 0 1-5.632 8.832c-2.912 2.24-7.168 3.36-12.736 3.36z"  /></svg>