<?xml version="1.0" standalone="no"?><!DOCTYPE svg PUBLIC "-//W3C//DTD SVG 1.1//EN" "http://www.w3.org/Graphics/SVG/1.1/DTD/svg11.dtd"><svg class="icon" width="200px" height="200.00px" viewBox="0 0 1024 1024" version="1.1" xmlns="http://www.w3.org/2000/svg"><path fill="#000000" d="M518.263927 879.868868c-167.362395 0-304.195748-138.901057-304.195748-307.844637 0-98.276755 120.413351-275.73441 287.654116-447.475472l15.933484-17.028151 16.541632 17.028151c167.848913 172.34921 288.262264 349.198717 288.262264 447.475472 0 168.94358-136.833353 307.844637-304.195748 307.844637z m0-707.519658c-150.820763 158.48343-258.58463 320.372491-258.58463 399.553391 0 144.73928 117.12935 263.328186 258.58463 263.328187 142.185058 0 259.314408-118.588906 259.314408-263.328187-0.12163-79.1809-107.885497-241.678109-259.314408-399.553391z m236.083145 422.541395c-28.461337 86.478679-100.587718 159.213208-194.485806 195.215583-1.946074 0.608148-4.621927 1.337926-7.297779 1.337927-9.973631-0.608148-18.487706-7.905927-20.55541-17.636299-1.337926-9.122224 4.013778-16.420002 12.527854-19.704003 81.370234-30.164153 142.914835-91.708754 167.362394-167.727284 1.337926-7.176149 8.635705-12.406224 19.217484-14.352298 15.933484-1.946074 26.515263 10.46015 23.231263 22.866374z m-142.914835-66.166529c10.581779 0 19.217484 8.514075 19.217484 18.974225s-8.635705 18.974225-19.217484 18.974225h-72.734529v67.504455c0 10.46015-8.635705 18.974225-19.217485 18.974225-10.581779 0-19.217484-8.514075-19.217484-18.974225v-68.112603h-74.680603c-10.581779 0-19.217484-8.514075-19.217485-18.974225s8.635705-18.974225 19.217485-18.974225h74.680603v-45.246229h-74.680603c-10.581779 0-19.217484-8.514075-19.217485-18.974224s8.635705-19.704003 17.879559-20.312152h63.490675l-46.949043-47.192303c-3.284-3.892149-5.351704-8.514075-5.351705-13.74415 0-5.230075 1.946074-9.852001 5.959853-13.74415 7.905927-7.176149 19.825632-6.568001 27.123411 0.608148l50.233044 50.476304 50.233045-49.746526c7.905927-7.176149 19.825632-7.176149 27.123411 0 7.297779 7.905927 7.297779 19.704003 0 27.4883l-46.949044 47.192304h62.15275c10.581779 0 19.217484 8.514075 19.217484 18.974225s-9.243853 18.974225-19.217484 19.704002h-72.734529v45.246229h72.856159z"  /></svg>