<?xml version="1.0" standalone="no"?><!DOCTYPE svg PUBLIC "-//W3C//DTD SVG 1.1//EN" "http://www.w3.org/Graphics/SVG/1.1/DTD/svg11.dtd"><svg class="icon" width="200px" height="200.00px" viewBox="0 0 1024 1024" version="1.1" xmlns="http://www.w3.org/2000/svg"><path fill="#000000" d="M835.921 470.182H514.856v-87.75c0-19.881 16.148-36.029 36.029-36.029h77.771c37.324 0 67.641-30.316 67.641-67.717V175.092c0-8.836-7.084-15.92-15.844-15.92s-15.844 7.084-15.844 15.92v103.594c0 19.881-16.148 35.953-35.953 35.953h-77.771c-37.4 0-67.793 30.393-67.793 67.793v87.75H188.079c-23.08 0-41.818 18.738-41.818 41.818v310.857c0 23.156 18.738 41.971 41.818 41.971h647.842c23.004 0 41.818-18.814 41.818-41.971V512c0-23.08-18.814-41.818-41.818-41.818z m10.055 352.675c0 5.637-4.494 10.207-10.055 10.207H188.079c-5.561 0-10.055-4.57-10.055-10.207V512c0-5.484 4.494-10.131 10.055-10.131h647.842c5.561 0 10.055 4.646 10.055 10.131v310.857zM228.679 578.498c-2.971 2.971-4.646 7.008-4.646 11.197s1.676 8.227 4.646 11.121c2.895 3.047 7.084 4.723 11.197 4.723s8.227-1.676 11.197-4.723c2.971-2.895 4.723-6.932 4.723-11.121s-1.752-8.227-4.723-11.35c-5.865-5.788-16.453-5.788-22.394 0.153zM306.45 578.498c-2.971 2.971-4.646 7.008-4.646 11.197s1.676 8.227 4.646 11.121c2.895 3.047 7.008 4.723 11.121 4.723 4.266 0 8.379-1.676 11.273-4.723 2.971-2.895 4.646-7.008 4.646-11.121s-1.676-8.227-4.646-11.35c-5.865-5.788-16.452-5.788-22.394 0.153zM395.343 605.539c4.266 0 8.227-1.676 11.197-4.723 2.971-2.895 4.723-6.932 4.723-11.121 0-4.113-1.752-8.227-4.723-11.197-5.789-5.941-16.453-5.941-22.395 0-2.971 2.971-4.57 7.084-4.57 11.197 0 4.189 1.6 8.227 4.57 11.121a15.62 15.62 0 0 0 11.198 4.723zM473.038 605.539c4.266 0 8.303-1.676 11.273-4.723 2.895-2.895 4.723-6.932 4.723-11.121 0-4.113-1.828-8.227-4.723-11.35-5.941-5.789-16.453-5.789-22.395 0.152-2.971 2.971-4.723 7.084-4.723 11.197 0 4.189 1.752 8.227 4.723 11.121 2.896 3.048 7.009 4.724 11.122 4.724zM550.886 605.539c4.189 0 8.303-1.676 11.273-4.723 2.818-2.895 4.57-6.932 4.57-11.121 0-4.113-1.752-8.227-4.57-11.35-5.941-5.789-16.453-5.789-22.471 0.152-2.895 2.971-4.57 7.008-4.57 11.197s1.676 8.227 4.57 11.121a15.747 15.747 0 0 0 11.198 4.724zM628.581 605.539c4.189 0 8.303-1.676 11.273-4.723 2.895-2.895 4.57-6.932 4.57-11.121 0-4.113-1.676-8.227-4.57-11.35-6.018-5.789-16.529-5.789-22.471 0.152-2.895 2.971-4.57 7.008-4.57 11.197s1.676 8.227 4.57 11.121c2.895 3.048 7.085 4.724 11.198 4.724zM695.231 578.498c-2.971 2.971-4.723 7.084-4.723 11.197 0 4.189 1.752 8.227 4.723 11.121 2.895 3.047 7.008 4.723 11.121 4.723 4.266 0 8.227-1.676 11.197-4.723 2.971-2.895 4.646-6.932 4.646-11.121 0-4.113-1.676-8.227-4.646-11.35-5.864-5.788-16.452-5.788-22.318 0.153zM772.851 578.498c-2.895 2.971-4.494 7.084-4.494 11.197 0 4.189 1.6 8.227 4.494 11.121 2.971 3.047 7.084 4.723 11.273 4.723 4.113 0 8.227-1.676 11.197-4.723 2.895-2.895 4.646-6.932 4.646-11.121 0-4.113-1.752-8.227-4.646-11.35-5.941-5.788-16.529-5.788-22.47 0.153zM306.45 656.193c-2.971 2.971-4.646 7.084-4.646 11.197 0 4.189 1.676 8.303 4.646 11.273s7.008 4.646 11.121 4.646c4.266 0 8.303-1.676 11.273-4.646 2.971-3.047 4.646-7.084 4.646-11.273 0-4.113-1.676-8.15-4.646-11.197-5.865-5.865-16.452-5.865-22.394 0zM228.679 656.193c-2.971 2.971-4.646 7.084-4.646 11.197 0 4.189 1.676 8.303 4.646 11.273 2.895 2.971 7.084 4.646 11.197 4.646s8.227-1.676 11.197-4.646 4.723-7.084 4.723-11.273c0-4.113-1.752-8.227-4.723-11.197-5.865-5.865-16.453-5.865-22.394 0zM395.343 683.311a15.86 15.86 0 0 0 11.197-4.646c2.971-3.047 4.723-7.084 4.723-11.273 0-4.113-1.752-8.15-4.723-11.197-5.789-5.865-16.453-5.865-22.395 0-2.971 2.971-4.57 7.084-4.57 11.197 0 4.189 1.6 8.303 4.57 11.273s7.008 4.646 11.198 4.646zM473.038 683.311c4.266 0 8.303-1.676 11.273-4.646 2.895-3.047 4.723-7.084 4.723-11.273 0-4.113-1.828-8.15-4.723-11.197-5.941-5.865-16.453-5.865-22.395 0-2.971 2.971-4.723 7.084-4.723 11.197 0 4.189 1.752 8.303 4.723 11.273 3.048 2.97 7.009 4.646 11.122 4.646zM550.886 683.311c4.189 0 8.227-1.676 11.273-4.646 2.818-3.047 4.646-7.084 4.646-11.273 0-4.113-1.828-8.15-4.646-11.197-5.941-5.865-16.453-5.865-22.471 0-2.895 2.971-4.57 7.084-4.57 11.197 0 4.189 1.676 8.303 4.57 11.273 2.971 2.97 7.084 4.646 11.198 4.646zM617.384 656.193c-2.895 2.971-4.57 7.084-4.57 11.197 0 4.189 1.676 8.303 4.57 11.273 3.123 2.971 7.084 4.646 11.197 4.646 4.189 0 8.227-1.676 11.273-4.646 2.895-3.047 4.646-7.084 4.646-11.273 0-4.113-1.752-8.15-4.646-11.197-6.017-5.865-16.529-5.865-22.47 0zM695.231 656.193c-2.971 2.971-4.723 7.084-4.723 11.197 0 4.189 1.752 8.303 4.723 11.273 2.895 2.971 7.008 4.646 11.121 4.646 4.266 0 8.227-1.676 11.273-4.646 2.895-3.047 4.57-7.084 4.57-11.273 0-4.113-1.676-8.15-4.57-11.197-5.94-5.865-16.528-5.865-22.394 0zM772.851 656.193c-2.895 2.971-4.494 7.084-4.494 11.197 0 4.189 1.6 8.303 4.494 11.273 2.971 2.971 7.084 4.646 11.273 4.646 4.113 0 8.227-1.676 11.197-4.646 2.895-2.971 4.646-7.084 4.646-11.273 0-4.113-1.752-8.227-4.646-11.197-5.865-5.865-16.529-5.865-22.47 0zM228.679 733.965c-2.971 3.047-4.646 7.084-4.646 11.273 0 4.113 1.676 8.303 4.646 11.197 2.895 2.971 7.084 4.646 11.197 4.646s8.227-1.676 11.197-4.646c2.971-2.895 4.723-7.084 4.723-11.197 0-4.189-1.752-8.227-4.723-11.273-5.865-5.865-16.453-5.865-22.394 0zM306.45 733.965c-2.971 3.047-4.723 7.084-4.723 11.273s1.752 8.303 4.723 11.197c2.895 2.971 7.008 4.646 11.121 4.646 4.266 0 8.379-1.676 11.273-4.646 2.971-2.895 4.646-7.084 4.646-11.197s-1.676-8.227-4.646-11.273c-5.865-5.865-16.452-5.865-22.394 0zM628.657 729.395H395.343c-8.76 0-15.768 7.084-15.768 15.844s7.008 15.844 15.768 15.844h233.314c8.76 0 15.844-7.084 15.844-15.844s-7.084-15.844-15.844-15.844zM695.231 733.965c-2.971 3.047-4.723 7.084-4.723 11.273 0 4.113 1.752 8.303 4.723 11.197 2.895 2.971 7.008 4.646 11.121 4.646 4.266 0 8.227-1.676 11.273-4.646 2.895-2.895 4.57-7.008 4.57-11.197s-1.676-8.227-4.57-11.273c-5.94-5.865-16.528-5.865-22.394 0zM772.851 733.965a16.358 16.358 0 0 0-4.494 11.273c0 4.113 1.6 8.303 4.494 11.197 2.971 2.971 7.084 4.646 11.273 4.646 4.113 0 8.227-1.676 11.197-4.646 2.895-2.895 4.646-7.008 4.646-11.197s-1.752-8.227-4.646-11.273c-5.865-5.865-16.529-5.865-22.47 0z" /></svg>