<?xml version="1.0" standalone="no"?><!DOCTYPE svg PUBLIC "-//W3C//DTD SVG 1.1//EN" "http://www.w3.org/Graphics/SVG/1.1/DTD/svg11.dtd"><svg class="icon" width="200px" height="200.00px" viewBox="0 0 1024 1024" version="1.1" xmlns="http://www.w3.org/2000/svg"><path fill="#000000" d="M738.7 208h-384v-32h384v32zM823 96h-20.5L783 110.5l-19 14.1-19-14.1-9-6.6-9 6.6-19 14.1-19-14.1-9-6.6-9 6.6-19 14.1-19-14.1-9-6.6-9 6.6-19 14.1-19-14.1-9-6.6-9 6.6-19 14.1-19-14.1-9-6.6-9 6.6-19 14.1-19-14.1-9-6.6-9 6.6-19 14.1-19-14.1-9-6.6-9 6.6-19 14.1-19-14.1-9-6.6-9 6.6-19 14.1-19-14.1-9-6.6-9 6.6-19 14.1-19-14.1L221.4 96H201l22.1 88.3 1 3.8V836l-1 3.8L201 928h20.4l19.5-14.5 19-14.1 19 14.1 9 6.6 9-6.6 19-14.1 19 14.1 9 6.6 9-6.6 19-14.1 19 14.1 9 6.6 9-6.6 19-14.1 19 14.1 9 6.6 9-6.6 19-14.1 19 14.1 9 6.6 9-6.6 19-14.1 19 14.1 9 6.6 9-6.6 19-14.1 19 14.1 9 6.6 9-6.6 19-14.1 19 14.1 9 6.6 9-6.6 19-14.1 19 14.1 9 6.6 9-6.6 19-14.1 19 14.1 19.5 14.5H823l-22-88.1-1-3.8v-648l1-3.8L823 96m41-32z m0 0l-32 128v640l32 128h-72l-28-20.7-28 20.7-28-20.7-28 20.7-28-20.7-28 20.7-28-20.7-28 20.7-28-20.7-28 20.7-28-20.7-28 20.7-28-20.7-28 20.7-28-20.7-28 20.7-28-20.7-28 20.7-28-20.7-28 20.7h-72l32-127.9V512 192L160 64h72l28 20.7L288 64l28 20.7L344 64l28 20.7L400 64l28 20.7L456 64l28 20.7L512 64l28 20.7L568 64l28 20.7L624 64l28 20.7L680 64l28 20.7L736 64l28 20.7L792 64h72zM732.2 732.8c-3.2 3.2-7.4 4.8-11.7 4.8s-8.4-1.6-11.7-4.8L591.4 615.3c-30.4 25.2-69.4 40.4-111.9 40.4-15.4 0-30.3-2-44.5-5.7-0.5-0.1-0.9-0.2-1.4-0.4C359 629.4 304 561 304 480.1c0-96.8 78.7-175.6 175.5-175.6S655 383.3 655 480.1c0 42.5-15.2 81.5-40.4 111.9L732 709.5c6.6 6.4 6.6 16.8 0.2 23.3zM479.5 623.7c38.7 0 73.9-15.4 99.7-40.4 0.5-0.6 1-1.3 1.6-1.8 0.6-0.6 1.2-1.1 1.8-1.6 25-25.8 40.4-61 40.4-99.7 0-79.2-64.4-143.6-143.5-143.6S336 400.9 336 480.1c0 13.7 1.9 26.9 5.5 39.4 0.4-20.7 5.2-41.8 14.5-62.6 10.8-24.3 26.9-45.8 46.4-62.4 20.4-17.3 42.7-27.5 64.5-29.4 33.3-2.9 62.6 6.4 84.7 26.9 18.7 17.3 31.2 41.9 35.3 69.2 3.7 24.5-2.4 48.6-17 67.7-13.9 18.2-34.4 30.1-56 32.6-43.2 5-70.4-22.7-77.3-50.6-7.5-30.2 6.8-58.8 34.6-69.7 8.2-3.2 17.5 0.9 20.7 9.1 3.2 8.2-0.9 17.5-9.1 20.7-15.6 6.1-17.9 21.1-15.2 32.2 3.5 14.1 16.8 29.5 42.6 26.5 13.1-1.5 25.6-8.9 34.3-20.3 9.3-12.2 13.1-27.6 10.8-43.5-5.2-34.8-30.7-73.7-85.6-68.9-15 1.3-31.5 9.1-46.6 21.9-15.7 13.3-29.1 31.4-37.9 51-18.5 41.5-14.8 84.4 10.3 117.9 6.8 9.1 27.9 24 47.6 31.1 11.6 3.1 23.8 4.8 36.4 4.8zM320 176h-32v32h32v-32z m353.5 640.1h-384v32h384v-32z m62.5 0h-32v32h32v-32z"  /></svg>