<?xml version="1.0" standalone="no"?><!DOCTYPE svg PUBLIC "-//W3C//DTD SVG 1.1//EN" "http://www.w3.org/Graphics/SVG/1.1/DTD/svg11.dtd"><svg t="1607784110126" class="icon" viewBox="0 0 1024 1024" version="1.1" xmlns="http://www.w3.org/2000/svg" p-id="5526" xmlns:xlink="http://www.w3.org/1999/xlink" width="200" height="200"><defs><style type="text/css"></style></defs><path d="M186.181818 558.545455c0-23.272727 18.618182-46.545455 46.545455-46.545455s46.545455 23.272727 46.545454 46.545455v186.181818c0 23.272727-18.618182 46.545455-46.545454 46.545454s-46.545455-23.272727-46.545455-46.545454v-186.181818z m279.272727-372.363637c0-27.927273 18.618182-46.545455 46.545455-46.545454s46.545455 18.618182 46.545455 46.545454v558.545455c0 27.927273-18.618182 46.545455-46.545455 46.545454s-46.545455-18.618182-46.545455-46.545454v-558.545455z m-325.818181 698.181818c0-27.927273 18.618182-46.545455 46.545454-46.545454h651.636364c27.927273 0 46.545455 18.618182 46.545454 46.545454s-18.618182 46.545455-46.545454 46.545455h-651.636364c-27.927273 0-46.545455-18.618182-46.545454-46.545455z m605.090909-512c0-23.272727 18.618182-46.545455 46.545454-46.545454s46.545455 23.272727 46.545455 46.545454v372.363637c0 23.272727-18.618182 46.545455-46.545455 46.545454s-46.545455-23.272727-46.545454-46.545454v-372.363637z" fill="" p-id="5527"></path></svg>