<?xml version="1.0" standalone="no"?><!DOCTYPE svg PUBLIC "-//W3C//DTD SVG 1.1//EN" "http://www.w3.org/Graphics/SVG/1.1/DTD/svg11.dtd"><svg class="icon" width="200px" height="200.00px" viewBox="0 0 1024 1024" version="1.1" xmlns="http://www.w3.org/2000/svg"><path fill="#000000" d="M1008.46843 926.47619l-27.451146-797.166843C981.017284 57.791887 919.252205 0 843.039153 0H180.960847C104.747795 0 42.982716 57.791887 42.982716 129.309347L15.53157 926.47619h95.717813c-0.722399 3.611993-1.083598 7.223986-1.083598 11.197179v26.367548c0 33.230335 26.728748 59.959083 59.959083 59.959083H256.451499c33.230335 0 59.959083-26.728748 59.959083-59.959083v-26.367548c0-3.973192-0.361199-7.585185-1.083598-11.197179h394.42963c-0.722399 3.611993-1.083598 7.223986-1.083598 11.197179v26.367548c0 33.230335 26.728748 59.959083 59.959083 59.959083h86.326631c33.230335 0 59.959083-26.728748 59.959083-59.959083v-26.367548c0-3.973192-0.361199-7.585185-1.083598-11.197179h94.634215zM185.656437 801.501235c-41.899118 0-75.851852-33.952734-75.851851-75.851852s33.952734-75.851852 75.851851-75.851852 75.851852 33.952734 75.851852 75.851852-33.952734 75.851852-75.851852 75.851852z m-53.818694-274.872664l10.11358-327.24656c0-72.239859 26.367549-100.774603 92.828218-100.774604h553.718519c66.46067 0 92.828219 28.534744 92.828219 100.774604l10.474779 327.24656H131.837743z m706.50582 274.872664c-41.899118 0-75.851852-33.952734-75.851852-75.851852s33.952734-75.851852 75.851852-75.851852 75.851852 33.952734 75.851851 75.851852-33.952734 75.851852-75.851851 75.851852z m0 0" /></svg>