<?xml version="1.0" standalone="no"?><!DOCTYPE svg PUBLIC "-//W3C//DTD SVG 1.1//EN" "http://www.w3.org/Graphics/SVG/1.1/DTD/svg11.dtd"><svg class="icon" width="200px" height="200.00px" viewBox="0 0 1024 1024" version="1.1" xmlns="http://www.w3.org/2000/svg"><path fill="#000000" d="M851.537262 553.602984l-69.51312-25.81799v-99.282091l25.215262-58.307929c45.700809-96.128265-39.397249-110.313321-39.397249-110.313322H605.790524c-16.268506 0-29.459933 13.18938-29.459932 29.457886s13.191427 29.459933 29.459932 29.459933h43.907979l1.524724 116.006991-86.672925 152.862351-146.559814-3.149733 51.474297-93.212869h8.410546c16.267482 0 29.457886-13.191427 29.457886-29.457886 0-16.270552-13.18938-29.459933-29.457886-29.459933h-355.086896c-16.269529 0-29.459933 13.18938-29.459933 29.459933 0 16.266459 13.190404 29.457886 29.459933 29.457886h44.847372l2.936886 0.23229-73.03329 132.373735a162.794551 162.794551 0 0 0-25.386155 46.012917l-2.438536 4.418632 0.552585 1.184987c-4.885259 15.496934-7.525386 31.989543-7.525387 49.100229 0 90.088718 73.032267 163.120985 163.120985 163.120985 85.458262 0 155.556713-65.717682 162.541794-149.36981l273.997124 0.498349c11.832478 78.452715 79.532302 138.594406 161.284152 138.594407 90.092811 0 163.123031-73.034314 163.123032-163.125078 0-80.593469-58.450168-147.528884-135.271735-160.74487z m-625.674367 244.058284c-40.334597 0-73.032267-32.69767-73.032267-73.032267 0-40.336643 32.69767-73.034314 73.032267-73.034314 40.33562 0 73.034314 32.69767 73.034314 73.034314 0 40.334597-32.698694 73.032267-73.034314 73.032267z m597.82307 0c-40.334597 0-73.032267-32.69767-73.032267-73.032267 0-40.336643 32.69767-73.034314 73.032267-73.034314 40.336643 0 73.034314 32.69767 73.034314 73.034314 0 40.334597-32.69767 73.032267-73.034314 73.032267z"  /><path fill="#000000" d="M148.620751 402.730962h225.087229c24.029252 0 43.510936-19.482707 43.510936-43.510936v-88.987642c0-24.031299-19.482707-43.511959-43.510936-43.511959H148.620751c-24.031299 0-43.511959 19.482707-43.51196 43.511959v88.987642c0 24.030275 19.482707 43.510936 43.51196 43.510936z m28.633102-140.192809h167.822048c11.302406 0 20.466104 9.162675 20.466104 20.466103s-9.163698 20.466104-20.466104 20.466104h-167.822048c-11.304452 0-20.466104-9.162675-20.466104-20.466104s9.161651-20.466104 20.466104-20.466103z"  /></svg>