<?xml version="1.0" standalone="no"?><!DOCTYPE svg PUBLIC "-//W3C//DTD SVG 1.1//EN" "http://www.w3.org/Graphics/SVG/1.1/DTD/svg11.dtd"><svg class="icon" width="200px" height="200.00px" viewBox="0 0 1024 1024" version="1.1" xmlns="http://www.w3.org/2000/svg"><path fill="#000000" d="M765.6 496.3c-9.1 0-16.4 7.4-16.4 16.4 0 9.1 7.4 16.4 16.4 16.4 9.1 0 16.4-7.4 16.4-16.4 0.1-9.1-7.3-16.4-16.4-16.4z"  /><path fill="#000000" d="M716.7 270.1h-411C172 270.1 63.1 378.9 63.1 512.7S172 755.3 305.7 755.3h411c133.8 0 242.6-108.8 242.6-242.6S850.5 270.1 716.7 270.1z m-332.1 274h-48.2v48.2c0 17.3-14 31.4-31.4 31.4s-31.4-14-31.4-31.4v-48.2h-48.2c-17.3 0-31.4-14-31.4-31.4 0-17.3 14-31.4 31.4-31.4h48.2v-48.2c0-17.3 14-31.4 31.4-31.4s31.4 14 31.4 31.4v48.2h48.2c17.3 0 31.4 14 31.4 31.4 0 17.3-14 31.4-31.4 31.4z m199.8 38.8c-38.7 0-70.2-31.5-70.2-70.2s31.5-70.2 70.2-70.2 70.2 31.5 70.2 70.2-31.5 70.2-70.2 70.2z m181.2 0c-38.7 0-70.2-31.5-70.2-70.2s31.5-70.2 70.2-70.2 70.2 31.5 70.2 70.2-31.5 70.2-70.2 70.2z"  /><path fill="#000000" d="M584.4 496.3c-9.1 0-16.4 7.4-16.4 16.4 0 9.1 7.4 16.4 16.4 16.4 9.1 0 16.4-7.4 16.4-16.4 0-9.1-7.3-16.4-16.4-16.4z"  /></svg>