<?xml version="1.0" standalone="no"?><!DOCTYPE svg PUBLIC "-//W3C//DTD SVG 1.1//EN" "http://www.w3.org/Graphics/SVG/1.1/DTD/svg11.dtd"><svg class="icon" width="200px" height="200.00px" viewBox="0 0 1024 1024" version="1.1" xmlns="http://www.w3.org/2000/svg"><path fill="#000000" d="M958.5 501.6c-1.3-12.4-3.8-24.8-7.5-36.9-1.8-5.9-3.9-11.6-6.3-17.3-4.8-11.2-10.6-22-17.4-32-6.8-10.1-14.6-19.5-23-27.9-8.6-8.6-18-16.4-27.9-23-15.2-10.3-31.8-18.3-49.4-23.7-9.1-2.9-18.6-4.8-28.2-6.2-0.9-3.6-1.7-7.2-2.8-10.7-2.1-6.7-4.5-13.2-7.2-19.6-5.4-12.7-12-24.9-19.7-36.3-7.7-11.4-16.4-21.9-26.1-31.6-9.7-9.7-20.3-18.4-31.6-26.1-17.2-11.6-36-20.7-55.9-26.9-13.6-4.2-27.5-7.1-41.7-8.5-7.3-0.7-14.6-1.1-21.9-1.1-14.3 0-28.6 1.4-42.6 4.3-6.9 1.4-13.8 3.2-20.6 5.3-6.8 2.1-13.4 4.5-19.9 7.3-6.5 2.7-12.9 5.8-19.1 9.2-18.8 10.2-36 23.3-50.9 38.6-1.3 1.3-2.5 2.6-3.8 3.9-1.3-1.3-2.6-2.6-3.8-3.9-5-5.1-10.3-10-15.8-14.6-10.9-9.1-22.7-17.2-35.1-24-18.7-10.2-38.8-17.5-59.6-21.8-14-2.9-28.3-4.3-42.6-4.3-7.3 0-14.6 0.4-21.9 1.1-14.1 1.4-28.1 4.3-41.7 8.5-13.3 4.1-26.1 9.5-38.3 16.2-6 3.3-11.9 6.9-17.6 10.7-5.7 3.8-11.2 7.9-16.4 12.3-5.3 4.4-10.3 9-15.2 13.8-9.7 9.7-18.4 20.3-26.1 31.6-3.9 5.7-7.4 11.6-10.7 17.6-3.3 6.1-6.3 12.3-9 18.7-5.5 12.9-9.6 26.3-12.4 40.1-1.4 7-2.5 14.1-3.2 21.2-0.7 7.3-1.1 14.6-1.1 21.9 0 23.2 3.7 46.2 11.1 68.2C78 462.9 80.9 470 84 477c3.2 6.9 6.8 13.7 10.7 20.2 3.9 6.6 8.2 12.9 12.8 19 9.4 12.4 20.1 23.7 31.9 33.8l239.1 210c3 2.6 6.2 5.1 9.5 7.3 7.5 5 15.8 8.8 24.5 11.2 3.7 1 7.4 1.8 11.2 2.4 3.8 0.5 7.6 0.9 11.3 0.9 7.6-0.1 15.2-1.2 22.5-3.3 4.9-1.4 9.7-3.2 14.3-5.5 3.5-1.7 6.9-3.6 10.2-5.8 3.3-2.2 6.5-4.6 9.5-7.3l10.3-9 88 77.3c3.1 2.7 6.3 5.2 9.8 7.5 7.8 5.1 16.3 9.1 25.4 11.6 3.8 1.1 7.7 1.9 11.4 2.4 3.9 0.6 7.8 0.9 11.7 1h0.6c7.8-0.1 15.6-1.3 23.3-3.4 5-1.4 9.9-3.3 14.8-5.6 3.6-1.7 7.1-3.7 10.5-6 3.4-2.3 6.7-4.8 9.7-7.5l186.2-163.6c10.4-8.9 19.9-18.9 28.1-29.8 4.1-5.4 7.9-11 11.3-16.8 3.5-5.8 6.6-11.8 9.5-17.9 8.5-18.5 14-38.2 16.2-58.4 0.8-6.9 1.1-13.8 1.1-20.6 0.1-6.7-0.2-13.2-0.9-19.5z m-44.1 35c-1.7 15.5-5.9 30.6-12.4 44.7-2.2 4.7-4.6 9.3-7.2 13.7-2.7 4.4-5.5 8.7-8.7 12.9-6.3 8.4-13.6 16-21.8 23.1L677.9 794.7c-1.6 1.4-3.3 2.7-5 3.8-1.7 1.1-3.5 2.2-5.3 3-2.5 1.2-5.1 2.2-7.6 2.9-3.8 1.1-7.7 1.6-11.6 1.7-1.9 0-3.8-0.2-5.8-0.5s-3.9-0.7-5.7-1.2c-4.6-1.3-9-3.3-12.9-5.9-1.8-1.2-3.5-2.5-5.1-3.9l-186.7-164c-8-6.8-15.2-14.5-21.6-22.9-3.1-4.1-6-8.4-8.7-12.9-2.6-4.4-5-8.9-7.2-13.6-2.1-4.7-4.1-9.5-5.7-14.4-5-14.8-7.5-30.3-7.5-46.1 0-5 0.2-9.9 0.7-14.8 0.5-4.8 1.2-9.6 2.2-14.3 1.9-9.2 4.7-18.3 8.4-27 1.8-4.3 3.9-8.6 6.1-12.7 2.2-4.1 4.6-8 7.2-11.9 5.2-7.7 11.2-14.9 17.7-21.4 3.3-3.3 6.7-6.4 10.3-9.4 3.6-2.9 7.3-5.7 11.1-8.3 3.8-2.6 7.8-5 11.8-7.2 8.2-4.4 16.9-8.1 25.9-10.9 9.1-2.8 18.5-4.8 28.2-5.7 4.9-0.5 9.9-0.8 14.8-0.8 9.6 0 19.3 1 28.8 2.9 14.1 2.9 27.6 7.8 40.3 14.7 8.4 4.6 16.4 10.1 23.8 16.3 3.7 3.1 7.2 6.4 10.6 9.9l18.6 19.4 19-19.4c10.1-10.4 21.7-19.2 34.4-26.1 4.3-2.3 8.6-4.4 13-6.2 4.4-1.9 8.9-3.5 13.5-4.9 4.6-1.4 9.2-2.6 13.9-3.5 14.3-3 29.1-3.7 43.6-2.2 9.6 1 19.1 2.9 28.2 5.7 13.4 4.2 26.1 10.3 37.8 18.2 7.6 5.1 14.8 11.1 21.4 17.7 6.5 6.5 12.4 13.7 17.6 21.4 5.2 7.7 9.7 15.9 13.3 24.5 1.8 4.4 3.4 8.8 4.8 13.2 2.9 9.2 4.8 18.7 5.7 28.2 0.5 4.9 0.8 9.9 0.8 14.9 0.3 5.1 0 10.3-0.6 15.6z" /></svg>